<svg class="canvas" viewBox="0 0 1920 1080" preserveAspectRatio="xMaxYMid slice" xmlns="http://www.w3.org/2000/svg" version="1.1" xmlns:xlink="http://www.w3.org/1999/xlink" xmlns:svgjs="http://svgjs.dev/svgjs"><rect width="1920" height="1080" fill="hsl(279, 65%, 15%)"></rect><defs><linearGradient x1="0.5" y1="0" x2="0" y2="1" id="SvgjsLinearGradient1133"><stop stop-color="#54288a" offset="0"></stop><stop stop-color="#14060d" offset="0.1"></stop></linearGradient><linearGradient x1="0.5" y1="0" x2="0" y2="1" id="SvgjsLinearGradient1134"><stop stop-color="#7c288a" offset="0"></stop><stop stop-color="#140608" offset="0.22857142857142856"></stop></linearGradient><linearGradient x1="0.5" y1="0" x2="0" y2="1" id="SvgjsLinearGradient1135"><stop stop-color="#7c288a" offset="0"></stop><stop stop-color="#140608" offset="0.3571428571428571"></stop></linearGradient><linearGradient x1="0.5" y1="0" x2="0" y2="1" id="SvgjsLinearGradient1136"><stop stop-color="#f2c0e5" offset="0"></stop><stop stop-color="#d76742" offset="0.48571428571428565"></stop></linearGradient><linearGradient x1="0.5" y1="0" x2="0" y2="1" id="SvgjsLinearGradient1137"><stop stop-color="#f2c0ef" offset="0"></stop><stop stop-color="#d74942" offset="0.6142857142857142"></stop></linearGradient><linearGradient x1="0.5" y1="0" x2="0" y2="1" id="SvgjsLinearGradient1138"><stop stop-color="#f2c0ef" offset="0"></stop><stop stop-color="#d74942" offset="0.7428571428571429"></stop></linearGradient><linearGradient x1="0.5" y1="0" x2="0" y2="1" id="SvgjsLinearGradient1139"><stop stop-color="#eac0f2" offset="0"></stop><stop stop-color="#d74258" offset="0.8714285714285713"></stop></linearGradient></defs><path d="M0,-568.2834087270536C51.26563552195014,-560.9533490712672,195.47917712698035,-559.0005503190755,307.5938131317008,-524.3030507923354C419.7084491364213,-489.6055512655953,554.466568130747,-399.6956142539761,672.6878160283229,-360.09841156661304C790.9090639258989,-320.50120887925,905.7343400282091,-310.665106170596,1016.9213005171562,-286.7198346681572C1128.1082610061032,-262.7745631657184,1248.4871149485614,-244.35846899400232,1339.8095789620056,-216.42678255198007C1431.1320429754498,-188.4950961099578,1468.1576810914892,-150.48694498684483,1564.8560845978216,-119.12971601602374C1661.554488104154,-87.77248704520265,1860.8093474329703,-43.42445994188191,1920,-28.283408727053548L 1920 1080 L 0 1080 Z" fill="url(#SvgjsLinearGradient1133)"></path><path d="M0,-368.26476338970565C69.62139153481549,-354.04601925075764,285.6794506234311,-320.0709002287225,417.7283492088929,-282.9522985560176C549.7772477943547,-245.83369688331263,673.7890536034548,-188.4620425808352,792.2933915127707,-145.55315335347598C910.7977294220865,-102.64426412611675,1004.0336167187027,-63.01488948619559,1128.7543766647877,-25.498963191862295C1253.4751366108728,12.016963102471003,1408.7436806334124,44.289085397878644,1540.617951189281,79.5424044125238C1672.4922217451497,114.79572342716895,1856.7696585315468,168.2745264820945,1920,186.02095089600863L 1920 1080 L 0 1080 Z" fill="url(#SvgjsLinearGradient1134)"></path><path d="M0,-246.36711067168557C43.783307119050654,-227.81757120977326,161.15506356601963,-168.50291102422506,262.69984271430394,-135.0698739002117C364.24462186258825,-101.63683677619832,502.2636539971576,-70.69111562730582,609.268674889706,-45.768887927605356C716.2736957822543,-20.846660227904895,795.31531134534,-12.782646765290892,904.7299680695941,14.463492297991067C1014.1446247938482,41.709631361273026,1158.9006409404303,91.629194384358,1265.7566152352301,117.70794645208639C1372.61258953003,143.7866985198148,1436.8252497109313,136.853276129752,1545.865813838393,170.93600470436144C1654.9063779658547,205.01873327897087,1857.644302306399,296.99293236717944,1920,322.20431789974305L 1920 1080 L 0 1080 Z" fill="url(#SvgjsLinearGradient1135)"></path><path d="M0,-150.7848046693358C43.327030348201106,-138.55410045405316,170.15850526339506,-103.27037586669721,259.96218208920664,-77.40057937763989C349.7658589150182,-51.530782888582564,459.07232304111346,-15.030092452972312,538.8220609548694,4.4339742650081035C618.5717988686253,23.89804098298852,665.3285668133336,15.527308960802692,738.4606095717421,39.3838209302426C811.5926523301506,63.24033289968251,904.079818752864,115.15441946404752,977.6143175053201,147.57304608164756C1051.1488162577762,179.9916726992476,1105.8457170346169,202.70123806435947,1179.667602086479,233.89558063584278C1253.4894871383412,265.0899232073261,1339.1648533538394,324.1078195086179,1420.5456278164932,334.7391015105473C1501.926402279147,345.3703835124767,1584.7098534984843,281.4610665345423,1667.952248862402,297.6832726474189C1751.1946442263197,313.9054787602955,1877.992041477067,409.6741605977424,1920,432.0723381878071L 1920 1080 L 0 1080 Z" fill="url(#SvgjsLinearGradient1136)"></path><path d="M0,-41.73973106534514C32.876477780401494,-24.44289136188726,111.116551265968,41.95121076751485,197.25886668240898,62.041307155402144C283.40118209885,82.13140354328944,432.65734584682474,52.37055593151999,516.8538924986459,78.80084726197865C601.0504391504671,105.2311385924373,623.2869903002904,183.2304516552106,702.4381465933361,220.62305513815411C781.5893028863818,258.01565862109766,914.4558314546389,281.7939624177672,991.76083025692,303.15646815963976C1069.0658290592012,324.5189739015123,1097.0403658771022,327.97150765041255,1166.2681394070228,348.7980895893896C1235.4959129369433,369.6246715283666,1328.0758749561182,407.65389260245246,1407.1274714364429,428.1159597935019C1486.1790679167675,448.5780269845513,1555.0989635283781,450.35596502168426,1640.577718288971,471.57049273568595C1726.056473049564,492.78502044968764,1873.4296197148285,541.4310205205411,1920,555.4031260775121L 1920 1080 L 0 1080 Z" fill="url(#SvgjsLinearGradient1137)"></path><path d="M0,91.42982455530591C49.34413438907422,108.9034055351727,202.1420742136911,164.60066140907978,296.06480633444534,196.2713104345066C389.98753845519957,227.94195945993343,467.13521271178075,253.67608444400926,563.5363927245254,281.45371870786687C659.9375727372701,309.2313529717245,790.2506252401906,343.4060133866821,874.4718864109134,362.9371160176523C958.6931475816361,382.46821864862244,993.632817797657,375.08454060833674,1068.8639597488616,398.64033449368776C1144.0951017000662,422.1961283790388,1230.1257840263652,465.2482535938695,1325.8587381181405,504.2718793297586C1421.591692209916,543.2955050656476,1544.2381406525376,599.6843361333357,1643.2616842995142,632.7820889090221C1742.2852279464907,665.8798416847086,1873.8769473832524,691.1790114714015,1920,702.8583959838774L 1920 1080 L 0 1080 Z" fill="url(#SvgjsLinearGradient1138)"></path><path d="M0,201.56983842126434C56.54285061857158,220.9228025258359,231.60912367571257,277.9981924929159,339.25710371142947,317.6876230486937C446.90508374714636,357.3770536044715,542.4012960255922,409.0396534302025,645.8878802143015,439.70642175593093C749.3744644030108,470.37319008165935,860.3332581462461,466.6826879439019,960.1766088436857,501.68823300306434C1060.0199595411252,536.6937780622268,1143.903513675229,618.2038456424107,1244.947984398939,649.7396921109055C1345.992455122649,681.2755385794003,1453.9347639191021,661.3125731432594,1566.4434331859457,690.9033118140335C1678.9521024527892,720.4940504848075,1861.073905530991,804.5539887486307,1920,827.2841241355501L 1920 1080 L 0 1080 Z" fill="url(#SvgjsLinearGradient1139)"></path></svg>