<svg class="canvas" viewBox="0 0 1920 1080" preserveAspectRatio="xMaxYMid slice" xmlns="http://www.w3.org/2000/svg" version="1.1" xmlns:xlink="http://www.w3.org/1999/xlink" xmlns:svgjs="http://svgjs.dev/svgjs"><rect width="1920" height="1080" fill="hsl(178, 65%, 15%)"></rect><defs><linearGradient x1="0.5" y1="0" x2="0" y2="1" id="SvgjsLinearGradient1196"><stop stop-color="#288a73" offset="0"></stop><stop stop-color="#060914" offset="0.1"></stop></linearGradient><linearGradient x1="0.5" y1="0" x2="0" y2="1" id="SvgjsLinearGradient1197"><stop stop-color="#288a73" offset="0"></stop><stop stop-color="#060914" offset="0.22857142857142856"></stop></linearGradient><linearGradient x1="0.5" y1="0" x2="0" y2="1" id="SvgjsLinearGradient1198"><stop stop-color="#288a60" offset="0"></stop><stop stop-color="#060c14" offset="0.3571428571428571"></stop></linearGradient><linearGradient x1="0.5" y1="0" x2="0" y2="1" id="SvgjsLinearGradient1199"><stop stop-color="#c0f2dc" offset="0"></stop><stop stop-color="#4282d7" offset="0.48571428571428565"></stop></linearGradient><linearGradient x1="0.5" y1="0" x2="0" y2="1" id="SvgjsLinearGradient1200"><stop stop-color="#c0f2d2" offset="0"></stop><stop stop-color="#42a0d7" offset="0.6142857142857142"></stop></linearGradient><linearGradient x1="0.5" y1="0" x2="0" y2="1" id="SvgjsLinearGradient1201"><stop stop-color="#c0f2dc" offset="0"></stop><stop stop-color="#4282d7" offset="0.7428571428571429"></stop></linearGradient><linearGradient x1="0.5" y1="0" x2="0" y2="1" id="SvgjsLinearGradient1202"><stop stop-color="#c0f2f0" offset="0"></stop><stop stop-color="#4247d7" offset="0.8714285714285713"></stop></linearGradient></defs><path d="M0,-543.8997779374598C68.95913748334256,-522.7017837529446,280.2014695766844,-458.10329530983995,413.7548249000554,-416.7118128303686C547.3081802234263,-375.3203303508973,673.4470655279923,-323.60567330005176,801.3201319402258,-295.550883060632C929.1931983524593,-267.4960928212122,1061.0575305822902,-281.70535488100296,1180.9932233734562,-248.38307139384972C1300.9289161646223,-215.06078790669648,1397.7664925827983,-136.36439771377752,1520.9342886872223,-95.61718213771256C1644.1020847916463,-54.86996656164759,1853.4890481145371,-19.18601197083531,1920,-3.8997779374598593L 1920 1080 L 0 1080 Z" fill="url(#SvgjsLinearGradient1196)"></path><path d="M0,-386.5486116056619C61.25999389597976,-373.0104897753599,236.90876554278478,-339.44539002187315,367.55996337587857,-305.31988062384977C498.2111612089724,-271.1943712258264,654.2865133071796,-229.427530066043,783.9071869985628,-181.7955552175217C913.527860689946,-134.16358036900039,1020.5391513411752,-64.29856079711871,1145.2840055241777,-19.52803153272197C1270.0288597071803,25.24249773167478,1403.256979683941,55.61676466672972,1532.376312096578,86.82762036885879C1661.495644509215,118.03847607098785,1855.3960520160963,154.25218896152015,1920,167.73710268005243L 1920 1080 L 0 1080 Z" fill="url(#SvgjsLinearGradient1197)"></path><path d="M0,-269.4923603420883C51.45914767109736,-254.03218082850296,193.90208312471685,-210.4143176817216,308.7548860265842,-176.73128326057616C423.6076889284515,-143.04824883943073,573.3413410516241,-101.16690543090644,689.116817411204,-67.39415381521572C804.8922937707839,-33.62140219952499,896.8766663661028,-1.6344174208888909,1003.4077441840634,25.905226433568195C1109.938822002024,53.444870288025285,1223.4404872708521,61.957776898434076,1328.3032843189676,97.84370931152682C1433.166081367083,133.72964172461957,1533.9684071925838,207.68159442582242,1632.584526472756,241.22082091212468C1731.200645752928,274.76004739842693,1872.0974210787926,289.4360270098044,1920,299.0790682293403L 1920 1080 L 0 1080 Z" fill="url(#SvgjsLinearGradient1198)"></path><path d="M0,-181.70589873043232C44.70449241090281,-168.28823229629214,170.51930798928657,-129.53151528709557,268.22695446541684,-101.19990012559117C365.9346009415471,-72.86828496408677,487.67911929872116,-42.275235744339554,586.2458788567817,-11.716207761405883C684.8126384148422,18.84282022152779,770.4683786055219,52.294642153521735,859.6275118137801,82.15426777201088C948.7866450220382,112.01389339050003,1041.0795778395013,137.1826067079182,1121.2006781063305,167.441545949529C1201.3217783731598,197.7004851911398,1247.2768597938807,239.98089827386133,1340.3541134147554,263.7079032216756C1433.43136703563,287.4349081694899,1583.056552067371,286.89635215224234,1679.6641998315786,309.80357563641485C1776.271847595786,332.71079912058735,1879.944033305263,385.9266327116613,1920,401.1512441267106L 1920 1080 L 0 1080 Z" fill="url(#SvgjsLinearGradient1199)"></path><path d="M0,14.856443256091609C40.259422589848775,18.167227861666237,163.15910418891127,2.002441750389522,241.55653553909264,34.72115088953938C319.953966889274,67.43986002868924,398.4334888303193,176.55695389369401,470.3845881010883,211.16869809099074C542.3356873718573,245.78044228828747,591.4365497597307,215.3892588068543,673.2631311637067,242.39161607331974C755.0897125676827,269.3939733397852,868.1575767734433,353.69806083313216,961.3440765249441,373.1828416897834C1054.5305762764447,392.66762254643464,1147.2855610810195,335.1409952542276,1232.3821296727108,359.3003012132272C1317.478698264402,383.4596071722268,1393.4313659982554,482.0713725925903,1471.9234880750917,518.1386774437809C1550.415610151928,554.2059822949716,1628.6554434795776,560.0606931611762,1703.3348621337288,575.704130320371C1778.0142807878801,591.3475674795657,1883.8891436889548,605.9501053858526,1920,611.9993003989489L 1920 1080 L 0 1080 Z" fill="url(#SvgjsLinearGradient1200)"></path><path d="M0,100.76392435952322C53.880098031582456,114.82979510800439,218.8695686935534,146.20355658108693,323.2805881894947,185.1591488504103C427.69160768543605,224.11474111973368,521.9833765232383,298.64274429940275,626.4661169756479,334.4974779754635C730.9488574280574,370.3522116515242,839.8828782176283,368.6617478678007,950.1770309039522,400.2875509067748C1060.471183590276,431.9133539457489,1181.173400214627,488.9811555913284,1288.2310330935913,524.2522962093078C1395.2886659725557,559.5234368272872,1487.2280003600038,580.5910280181868,1592.5228281777386,611.9143946146512C1697.8176559954734,643.2377612111156,1865.4204713629565,695.4794789258541,1920,712.1924957880947L 1920 1080 L 0 1080 Z" fill="url(#SvgjsLinearGradient1201)"></path><path d="M0,273.9396177567328C69.95991607258075,289.52272138956977,298.08784666072063,319.2532520483699,419.75949643548455,367.4382395537548C541.4311462102485,415.62322705913965,614.1328709221513,514.0245267787079,730.0298986485835,563.0495427890419C845.9269263750158,612.0745587993758,977.7823801817017,635.1237081294048,1115.1416627940782,661.5883356157588C1252.5009454064548,688.0529631021127,1420.0425381218556,682.1597130646222,1554.1855943228425,721.8373077071656C1688.3286505238293,761.5149023497089,1859.0309323871404,870.0178041770431,1920,899.6539034710186L 1920 1080 L 0 1080 Z" fill="url(#SvgjsLinearGradient1202)"></path></svg>