<svg xmlns="http://www.w3.org/2000/svg" xmlns:v="https://svgstorm.com"
viewBox = "0 0 1024 1024"
width="1024"
height="1024">
<g fill="None" fill-opacity="0.0" stroke="#14263A" stroke-opacity="1.00" stroke-width="0.3"><path d="
M 0.00 1024.00 
L 508.00 1024.00
C 509.12 949.35 506.51 874.64 508.00 800.00
C 507.63 798.29 506.42 796.22 505.00 795.00
C 516.91 789.34 533.59 792.49 548.00 792.00 C 562.41 791.51 579.31 791.53 593.00 793.00
C 617.56 791.05 650.09 785.81 669.00 769.00
C 676.30 762.51 682.28 758.47 687.92 752.92 C 693.56 747.37 703.24 738.23 705.00 732.00
C 707.44 731.74 710.13 730.65 708.00 734.00
C 709.82 734.55 710.47 732.25 712.00 732.00
C 762.43 668.76 759.16 568.84 694.00 515.00
C 723.71 486.11 743.61 449.02 746.00 408.00
C 746.00 401.67 746.00 395.33 746.00 389.00
C 746.00 306.41 664.45 242.00 586.00 242.00
C 577.91 242.00 567.90 242.58 560.00 242.00 C 552.10 241.42 541.19 243.54 534.00 242.00 C 526.81 240.46 512.84 245.84 508.00 241.00
C 504.76 237.76 507.66 227.52 508.00 224.00
C 508.00 149.33 508.00 74.67 508.00 0.00
L 0.00 0.00
L 0.00 1024.00
M 364.00 244.00 
C 368.12 248.12 363.95 258.76 365.00 265.00 C 366.05 271.24 364.70 281.23 365.00 288.00 C 365.30 294.77 365.34 303.15 365.00 310.00 C 364.66 316.85 366.11 326.49 365.00 333.00 C 363.89 339.51 368.10 349.93 364.00 355.00
C 368.78 360.92 363.53 372.28 365.00 380.00 C 366.47 387.72 364.23 398.67 365.00 407.00 C 365.77 415.33 364.42 425.50 365.00 434.00
C 416.85 440.72 485.60 414.03 520.00 464.00
C 517.33 464.00 514.67 464.00 512.00 464.00
C 505.87 464.59 498.89 465.38 492.00 465.00 C 485.11 464.62 477.99 465.17 471.00 465.00 C 464.01 464.83 457.07 465.08 450.00 465.00 C 442.93 464.92 435.09 465.05 428.00 465.00 C 420.92 464.95 414.03 465.04 407.00 465.00 C 399.97 464.96 393.00 465.06 386.00 465.00 C 379.00 464.94 371.96 465.12 365.00 465.00 C 358.04 464.88 349.79 465.25 343.00 465.00 C 336.21 464.75 328.32 465.59 322.00 465.00 C 315.68 464.41 306.39 466.31 301.00 465.00 C 295.61 463.69 282.78 468.22 280.00 464.00
C 277.72 460.53 283.69 452.64 283.32 448.32 C 282.95 444.01 287.47 437.44 288.00 433.00
C 287.00 433.00 286.00 433.00 285.00 433.00
C 282.16 433.00 279.13 433.51 277.00 432.00
C 270.83 427.64 276.42 411.76 275.00 403.00 C 273.58 394.24 275.64 380.77 275.00 371.00 C 274.36 361.23 275.30 349.18 275.00 339.00 C 274.70 328.82 275.14 318.40 275.00 308.00 C 274.86 297.60 275.07 286.53 275.00 276.00 C 274.93 265.47 275.05 254.56 275.00 244.00
C 284.67 244.00 294.33 244.00 304.00 244.00
C 308.15 246.90 303.79 258.57 305.00 264.00 C 306.21 269.43 304.46 278.71 305.00 285.00 C 305.54 291.29 304.76 299.32 305.00 306.00 C 305.24 312.68 304.90 320.15 305.00 327.00 C 305.10 333.85 304.98 341.07 305.00 348.00 C 305.02 354.93 305.04 362.03 305.00 369.00 C 304.97 375.97 305.12 383.03 305.00 390.00 C 304.88 396.97 305.28 404.03 305.00 411.00 C 304.72 417.97 305.63 425.06 305.00 432.00
C 308.19 433.82 315.43 433.47 319.00 433.00 C 322.57 432.53 331.97 434.90 334.00 432.00
C 336.03 423.84 333.88 413.52 334.00 405.00 C 334.12 396.48 335.51 385.44 334.00 377.00
C 330.43 357.05 331.76 334.19 332.00 313.00 C 332.24 291.81 330.23 268.34 333.00 248.00
C 333.00 247.15 332.57 244.71 333.00 244.00
C 335.43 241.47 344.27 242.91 348.00 243.00 C 351.73 243.09 361.42 241.42 364.00 244.00
M 471.00 314.00 
C 468.65 312.71 455.28 316.70 449.00 315.00 C 442.72 313.30 430.36 316.81 424.00 315.00 C 417.64 313.19 404.45 318.60 400.00 314.00
C 399.75 313.74 400.00 313.00 400.00 313.00
C 400.00 302.00 400.00 291.00 400.00 280.00
C 423.33 280.00 446.67 280.00 470.00 280.00
C 472.68 281.88 471.26 292.17 471.00 296.00 C 470.74 299.83 472.65 310.28 471.00 314.00
M 602.00 281.00 
C 614.36 281.00 628.76 284.81 639.68 289.32 C 650.59 293.84 659.43 299.21 668.25 306.75 C 677.07 314.29 683.98 320.71 690.75 330.25 C 697.52 339.79 701.65 349.76 705.93 361.07 C 710.21 372.39 712.20 389.39 712.00 402.00 C 711.80 414.61 708.51 429.55 704.22 440.22 C 699.94 450.90 695.10 462.08 688.08 470.08 C 681.07 478.09 675.31 489.73 665.75 493.75 C 656.20 497.78 644.05 480.15 633.00 482.00
C 664.21 461.32 687.15 421.30 680.00 383.00 C 672.85 344.70 638.70 314.97 600.00 314.00
C 557.19 314.00 514.51 314.14 472.00 313.00
C 472.00 302.00 472.00 291.00 472.00 280.00
C 515.17 280.67 559.65 278.67 602.00 281.00
M 600.00 350.00 
C 599.92 350.01 600.00 351.00 600.00 351.00
C 631.51 351.00 653.24 387.33 643.67 414.67 C 634.11 442.02 608.61 463.43 580.00 464.00
C 575.19 464.58 565.57 466.92 561.00 464.00
C 554.23 459.68 553.55 446.05 546.75 440.25 C 539.94 434.46 536.03 425.15 527.75 420.25 C 519.48 415.34 513.03 409.04 503.77 405.23 C 494.51 401.41 483.30 397.82 473.00 397.00
C 468.08 397.09 461.71 398.76 456.00 398.00 C 450.29 397.24 442.58 398.72 437.00 398.00 C 431.42 397.28 422.94 399.16 418.00 398.00 C 413.06 396.84 402.70 400.85 400.00 397.00
C 397.65 393.64 401.01 386.30 400.00 382.00 C 398.99 377.70 400.34 371.77 400.00 367.00 C 399.66 362.23 400.00 355.91 400.00 351.00
C 400.00 350.50 400.00 350.00 400.00 350.00
C 404.59 345.26 416.92 350.42 424.00 349.00 C 431.08 347.58 442.16 349.67 450.00 349.00 C 457.84 348.33 466.78 349.29 475.00 349.00 C 483.22 348.71 492.62 349.14 501.00 349.00 C 509.38 348.86 517.54 349.06 526.00 349.00 C 534.46 348.94 543.51 349.03 552.00 349.00 C 560.49 348.97 568.48 349.01 577.00 349.00 C 585.52 348.99 594.44 349.01 603.00 349.00
C 602.74 350.39 600.95 349.78 600.00 350.00
M 533.00 500.00 
C 534.93 501.31 534.66 501.75 535.00 504.00
C 535.38 506.54 535.00 509.43 535.00 512.00
C 535.33 515.45 538.67 530.43 535.00 533.00
C 530.45 536.19 520.87 531.63 515.00 533.00 C 509.13 534.37 500.39 532.35 494.00 533.00 C 487.61 533.65 480.68 532.72 474.00 533.00 C 467.32 533.28 459.82 532.87 453.00 533.00 C 446.18 533.13 438.84 532.94 432.00 533.00 C 425.16 533.06 418.87 532.97 412.00 533.00 C 405.13 533.03 397.91 532.99 391.00 533.00 C 384.09 533.01 376.89 532.99 370.00 533.00 C 363.11 533.01 356.90 533.00 350.00 533.00 C 343.10 533.00 335.95 532.99 329.00 533.00 C 322.05 533.01 314.96 532.99 308.00 533.00
C 307.50 533.00 307.00 533.00 307.00 533.00
C 296.67 533.00 286.33 533.00 276.00 533.00
C 273.98 525.42 276.28 520.17 275.00 512.00 C 273.72 503.83 276.10 498.20 285.00 500.00 C 293.90 501.80 298.49 498.65 307.00 500.00
C 307.50 500.00 308.50 500.00 309.00 500.00
C 317.89 496.22 329.87 500.02 340.00 499.00 C 350.13 497.98 361.57 499.40 372.00 499.00 C 382.43 498.60 393.44 499.05 404.00 499.00 C 414.56 498.95 426.49 498.75 437.00 499.00 C 447.51 499.25 458.79 498.26 469.00 499.00 C 479.21 499.74 491.39 497.28 501.00 499.00 C 510.61 500.72 525.39 494.82 533.00 500.00
M 632.00 517.00 
C 646.87 523.05 662.42 532.42 674.00 544.00
C 692.28 559.62 701.92 578.45 708.93 601.07 C 715.93 623.70 714.23 659.58 704.02 681.02 C 693.81 702.47 682.94 718.62 662.77 732.77 C 642.60 746.92 620.66 756.86 594.00 757.00 C 567.34 757.14 529.80 760.61 502.00 758.00
C 492.37 757.10 482.02 756.60 472.00 757.00
C 472.00 747.00 472.00 737.00 472.00 727.00
C 481.67 727.00 491.33 727.00 501.00 727.00
C 539.04 727.00 591.38 732.13 625.22 719.22 C 659.07 706.32 676.21 676.43 681.33 643.33 C 686.45 610.23 667.55 572.31 639.00 555.00
C 625.19 546.63 612.03 537.26 596.00 534.00
C 587.53 532.28 578.75 532.63 570.00 532.00
C 570.32 521.16 569.82 510.56 569.00 500.00
C 591.33 500.74 612.06 508.05 632.00 517.00
M 365.00 700.00 
C 365.30 707.42 365.09 715.65 365.00 723.00 C 364.91 730.35 365.55 738.92 365.00 746.00 C 364.45 753.08 366.36 762.59 365.00 769.00 C 363.64 775.41 368.41 787.76 364.00 792.00
C 360.79 795.21 353.70 792.14 349.00 793.00 C 344.30 793.86 336.94 792.35 332.00 793.00
C 332.67 753.83 330.67 713.35 333.00 675.00
C 335.86 650.89 332.94 625.54 334.00 601.00
C 329.33 601.00 324.67 601.00 320.00 601.00
C 314.40 601.00 309.69 602.24 305.00 603.00
C 301.67 608.91 306.44 618.99 305.00 626.00 C 303.56 633.01 305.68 642.54 305.00 650.00 C 304.32 657.46 305.29 665.29 305.00 673.00 C 304.71 680.71 305.13 689.16 305.00 697.00 C 304.87 704.84 305.06 713.14 305.00 721.00 C 304.94 728.86 305.03 736.11 305.00 744.00 C 304.97 751.89 305.01 760.06 305.00 768.00 C 304.99 775.94 305.01 784.04 305.00 792.00
C 295.00 792.00 285.00 792.00 275.00 792.00
C 275.00 729.00 275.00 666.00 275.00 603.00
C 276.67 603.00 278.33 603.00 280.00 603.00
C 281.82 602.56 284.52 601.28 287.00 602.00
C 283.64 591.50 280.47 581.03 279.00 570.00
C 288.67 570.00 298.33 570.00 308.00 570.00
C 379.58 570.00 451.84 570.83 523.00 569.00
C 510.00 592.90 489.74 603.53 461.00 602.00 C 432.26 600.47 394.56 603.15 365.00 602.00
C 365.06 634.51 364.92 668.34 365.00 700.00
M 608.00 686.00 
C 603.28 688.13 596.99 689.81 590.00 689.00 C 583.01 688.19 576.01 689.37 569.00 689.00 C 561.99 688.63 555.03 689.17 548.00 689.00 C 540.97 688.83 534.07 689.09 527.00 689.00 C 519.93 688.91 512.04 689.08 505.00 689.00 C 497.96 688.92 490.90 689.13 484.00 689.00 C 477.10 688.87 469.71 689.27 463.00 689.00 C 456.29 688.73 448.31 689.60 442.00 689.00 C 435.69 688.40 426.46 690.31 421.00 689.00 C 415.54 687.69 402.96 692.23 400.00 688.00
C 397.49 684.42 401.17 676.52 400.00 672.00 C 398.83 667.48 400.61 660.91 400.00 656.00 C 399.39 651.09 400.46 645.01 400.00 640.00
C 431.82 637.98 466.57 644.75 496.00 635.00
C 497.39 633.55 495.84 632.72 496.00 631.00
C 501.35 633.32 506.96 626.81 511.00 628.00
C 511.00 625.53 513.59 623.27 512.00 621.00
C 520.98 621.03 522.62 612.53 532.00 612.00
C 531.21 606.55 540.77 604.36 536.00 600.00
C 540.92 598.34 537.75 602.77 541.00 603.00
C 545.68 599.36 542.96 591.72 550.00 591.00
C 554.19 584.08 559.60 577.37 561.00 569.00
C 593.56 564.56 626.88 579.48 640.92 609.08 C 654.97 638.68 639.99 676.81 608.00 686.00
M 437.00 726.00 
C 448.33 726.00 459.67 726.00 471.00 726.00
C 471.00 734.67 471.00 743.33 471.00 752.00
C 470.93 754.49 471.17 756.12 470.00 758.00
C 467.67 761.75 455.85 758.63 450.00 759.00 C 444.15 759.37 431.07 759.95 425.00 759.00 C 418.93 758.05 404.07 762.20 400.00 758.00
C 399.75 757.74 400.00 757.00 400.00 757.00
C 400.00 744.67 400.00 732.33 400.00 720.00
C 412.20 722.36 424.02 726.53 437.00 726.00 Z"/>
</g>
<g fill="None" fill-opacity="0.0" stroke="#FBFDF8" stroke-opacity="1.00" stroke-width="0.3"><path d="
M 508.00 224.00 
C 508.00 229.67 508.00 235.33 508.00 241.00
C 533.83 241.73 561.00 239.58 586.00 242.00
C 664.45 242.00 746.00 306.41 746.00 389.00
C 746.58 394.98 746.57 402.09 746.00 408.00
C 743.61 449.02 723.71 486.11 694.00 515.00
C 759.16 568.84 762.43 668.76 712.00 732.00
C 699.71 747.41 685.30 759.32 669.00 769.00
C 650.09 785.81 617.56 791.05 593.00 793.00
C 564.85 795.23 536.20 791.32 508.00 793.00
C 508.00 795.33 508.00 797.67 508.00 800.00
C 506.51 874.64 509.12 949.35 508.00 1024.00
L 1024.00 1024.00
L 1024.00 0.00
L 508.00 0.00
C 508.00 74.67 508.00 149.33 508.00 224.00 Z"/>
</g>
<g fill="None" fill-opacity="0.0" stroke="#444E55" stroke-opacity="1.00" stroke-width="0.3"><path d="
M 508.00 241.00 
C 508.00 235.33 508.00 229.67 508.00 224.00
C 507.66 227.52 504.76 237.76 508.00 241.00 Z"/>
</g>
<g fill="None" fill-opacity="0.0" stroke="#838F91" stroke-opacity="1.00" stroke-width="0.3"><path d="
M 586.00 242.00 
C 561.00 239.58 533.83 241.73 508.00 241.00
C 512.84 245.84 526.81 240.46 534.00 242.00 C 541.19 243.54 552.10 241.42 560.00 242.00 C 567.90 242.58 577.91 242.00 586.00 242.00 Z"/>
</g>
<g fill="None" fill-opacity="0.0" stroke="#2A3B43" stroke-opacity="1.00" stroke-width="0.3"><path d="
M 333.00 244.00 
C 333.13 243.78 334.00 244.00 334.00 244.00
C 344.00 244.00 354.00 244.00 364.00 244.00
C 361.42 241.42 351.73 243.09 348.00 243.00 C 344.27 242.91 335.43 241.47 333.00 244.00 Z"/>
</g>
<g fill="None" fill-opacity="0.0" stroke="#F9FCF9" stroke-opacity="1.00" stroke-width="0.3"><path d="
M 277.00 432.00 
C 278.74 432.84 283.03 432.00 285.00 432.00
C 291.33 432.00 297.67 432.00 304.00 432.00
C 301.19 400.92 305.47 369.20 304.00 338.00 C 302.53 306.80 305.10 275.23 304.00 244.00
C 294.33 244.00 284.67 244.00 275.00 244.00
C 275.05 254.56 274.93 265.47 275.00 276.00 C 275.07 286.53 274.86 297.60 275.00 308.00 C 275.14 318.40 274.70 328.82 275.00 339.00 C 275.30 349.18 274.36 361.23 275.00 371.00 C 275.64 380.77 273.58 394.24 275.00 403.00 C 276.42 411.76 270.83 427.64 277.00 432.00 Z"/>
</g>
<g fill="None" fill-opacity="0.0" stroke="#B7C0C9" stroke-opacity="1.00" stroke-width="0.3"><path d="
M 304.00 432.00 
C 304.32 431.76 305.00 432.00 305.00 432.00
C 305.63 425.06 304.72 417.97 305.00 411.00 C 305.28 404.03 304.88 396.97 305.00 390.00 C 305.12 383.03 304.97 375.97 305.00 369.00 C 305.04 362.03 305.02 354.93 305.00 348.00 C 304.98 341.07 305.10 333.85 305.00 327.00 C 304.90 320.15 305.24 312.68 305.00 306.00 C 304.76 299.32 305.54 291.29 305.00 285.00 C 304.46 278.71 306.21 269.43 305.00 264.00 C 303.79 258.57 308.15 246.90 304.00 244.00
C 305.10 275.23 302.53 306.80 304.00 338.00 C 305.47 369.20 301.19 400.92 304.00 432.00 Z"/>
</g>
<g fill="None" fill-opacity="0.0" stroke="#99A0A7" stroke-opacity="1.00" stroke-width="0.3"><path d="
M 333.00 248.00 
C 333.00 256.00 333.00 264.00 333.00 272.00
C 333.82 263.55 334.83 253.17 334.00 244.00
C 334.00 244.00 333.13 243.78 333.00 244.00
C 332.57 244.71 333.00 247.15 333.00 248.00 Z"/>
</g>
<g fill="None" fill-opacity="0.0" stroke="#F8FBF8" stroke-opacity="1.00" stroke-width="0.3"><path d="
M 333.00 272.00 
C 333.00 298.67 333.00 325.33 333.00 352.00
C 333.33 355.40 334.00 359.92 334.00 364.00
C 334.00 368.33 334.00 372.67 334.00 377.00
C 335.60 372.65 344.45 369.11 347.75 365.75 C 351.05 362.39 358.19 355.45 363.00 355.00
C 368.15 344.85 362.29 330.51 364.00 319.00 C 365.71 307.49 363.13 294.02 364.00 282.00 C 364.87 269.98 363.35 256.18 364.00 244.00
C 354.00 244.00 344.00 244.00 334.00 244.00
C 334.83 253.17 333.82 263.55 333.00 272.00 Z"/>
</g>
<g fill="None" fill-opacity="0.0" stroke="#808D96" stroke-opacity="1.00" stroke-width="0.3"><path d="
M 363.00 355.00 
C 363.50 354.95 364.00 355.00 364.00 355.00
C 368.10 349.93 363.89 339.51 365.00 333.00 C 366.11 326.49 364.66 316.85 365.00 310.00 C 365.34 303.15 365.30 294.77 365.00 288.00 C 364.70 281.23 366.05 271.24 365.00 265.00 C 363.95 258.76 368.12 248.12 364.00 244.00
C 363.35 256.18 364.87 269.98 364.00 282.00 C 363.13 294.02 365.71 307.49 364.00 319.00 C 362.29 330.51 368.15 344.85 363.00 355.00 Z"/>
</g>
<g fill="None" fill-opacity="0.0" stroke="#07161D" stroke-opacity="1.00" stroke-width="0.3"><path d="
M 334.00 377.00 
C 334.00 372.67 334.00 368.33 334.00 364.00
C 333.67 360.60 333.00 356.08 333.00 352.00
C 333.00 325.33 333.00 298.67 333.00 272.00
C 333.00 264.00 333.00 256.00 333.00 248.00
C 330.23 268.34 332.24 291.81 332.00 313.00 C 331.76 334.19 330.43 357.05 334.00 377.00 Z"/>
</g>
<g fill="None" fill-opacity="0.0" stroke="#F9FCF8" stroke-opacity="1.00" stroke-width="0.3"><path d="
M 400.00 313.00 
C 411.25 311.98 422.65 312.96 434.00 313.00 C 445.35 313.04 457.66 311.98 469.00 313.00
C 474.64 305.36 466.85 289.01 470.00 280.00
C 446.67 280.00 423.33 280.00 400.00 280.00
C 400.00 291.00 400.00 302.00 400.00 313.00 Z"/>
</g>
<g fill="None" fill-opacity="0.0" stroke="#70848E" stroke-opacity="1.00" stroke-width="0.3"><path d="
M 469.00 313.00 
C 468.76 313.32 469.00 314.00 469.00 314.00
C 469.50 314.00 470.92 314.19 471.00 314.00
C 472.65 310.28 470.74 299.83 471.00 296.00 C 471.26 292.17 472.68 281.88 470.00 280.00
C 466.85 289.01 474.64 305.36 469.00 313.00 Z"/>
</g>
<g fill="None" fill-opacity="0.0" stroke="#3B5972" stroke-opacity="1.00" stroke-width="0.3"><path d="
M 600.00 314.00 
C 568.31 310.93 534.46 314.22 502.00 313.00
C 502.00 302.33 502.00 291.67 502.00 281.00
C 535.33 281.00 568.67 281.00 602.00 281.00
C 559.65 278.67 515.17 280.67 472.00 280.00
C 472.00 291.00 472.00 302.00 472.00 313.00
C 514.51 314.14 557.19 314.00 600.00 314.00 Z"/>
</g>
<g fill="None" fill-opacity="0.0" stroke="#60829C" stroke-opacity="1.00" stroke-width="0.3"><path d="
M 600.00 314.00 
C 638.70 314.97 672.85 344.70 680.00 383.00 C 687.15 421.30 664.21 461.32 633.00 482.00
C 644.05 480.15 656.20 497.78 665.75 493.75 C 675.31 489.73 681.07 478.09 688.08 470.08 C 695.10 462.08 699.94 450.90 704.22 440.22 C 708.51 429.55 711.80 414.61 712.00 402.00 C 712.20 389.39 710.21 372.39 705.93 361.07 C 701.65 349.76 697.52 339.79 690.75 330.25 C 683.98 320.71 677.07 314.29 668.25 306.75 C 659.43 299.21 650.59 293.84 639.68 289.32 C 628.76 284.81 614.36 281.00 602.00 281.00
C 568.67 281.00 535.33 281.00 502.00 281.00
C 502.00 291.67 502.00 302.33 502.00 313.00
C 534.46 314.22 568.31 310.93 600.00 314.00 Z"/>
</g>
<g fill="None" fill-opacity="0.0" stroke="#9AA3A6" stroke-opacity="1.00" stroke-width="0.3"><path d="
M 400.00 314.00 
C 422.58 316.04 446.32 314.00 469.00 314.00
C 469.00 314.00 468.76 313.32 469.00 313.00
C 457.66 311.98 445.35 313.04 434.00 313.00 C 422.65 312.96 411.25 311.98 400.00 313.00
C 400.00 313.00 399.75 313.74 400.00 314.00 Z"/>
</g>
<g fill="None" fill-opacity="0.0" stroke="#010D15" stroke-opacity="1.00" stroke-width="0.3"><path d="
M 471.00 314.00 
C 470.92 314.19 469.50 314.00 469.00 314.00
C 446.32 314.00 422.58 316.04 400.00 314.00
C 404.45 318.60 417.64 313.19 424.00 315.00 C 430.36 316.81 442.72 313.30 449.00 315.00 C 455.28 316.70 468.65 312.71 471.00 314.00 Z"/>
</g>
<g fill="None" fill-opacity="0.0" stroke="#08161E" stroke-opacity="1.00" stroke-width="0.3"><path d="
M 400.00 350.00 
C 432.72 347.04 467.12 350.00 500.00 350.00 C 532.88 350.00 567.28 347.04 600.00 350.00
C 600.95 349.78 602.74 350.39 603.00 349.00
C 594.44 349.01 585.52 348.99 577.00 349.00 C 568.48 349.01 560.49 348.97 552.00 349.00 C 543.51 349.03 534.46 348.94 526.00 349.00 C 517.54 349.06 509.38 348.86 501.00 349.00 C 492.62 349.14 483.22 348.71 475.00 349.00 C 466.78 349.29 457.84 348.33 450.00 349.00 C 442.16 349.67 431.08 347.58 424.00 349.00 C 416.92 350.42 404.59 345.26 400.00 350.00 Z"/>
</g>
<g fill="None" fill-opacity="0.0" stroke="#96A4A6" stroke-opacity="1.00" stroke-width="0.3"><path d="
M 400.00 351.00 
C 433.02 353.98 466.83 349.88 500.00 351.00 C 533.17 352.12 566.79 351.00 600.00 351.00
C 600.00 351.00 599.92 350.01 600.00 350.00
C 567.28 347.04 532.88 350.00 500.00 350.00 C 467.12 350.00 432.72 347.04 400.00 350.00
C 400.00 350.00 400.00 350.50 400.00 351.00 Z"/>
</g>
<g fill="None" fill-opacity="0.0" stroke="#F9FBF7" stroke-opacity="1.00" stroke-width="0.3"><path d="
M 400.00 397.00 
C 424.22 398.44 448.82 395.08 473.00 397.00
C 483.30 397.82 494.51 401.41 503.77 405.23 C 513.03 409.04 519.48 415.34 527.75 420.25 C 536.03 425.15 539.94 434.46 546.75 440.25 C 553.55 446.05 554.23 459.68 561.00 464.00
C 565.36 465.88 575.18 464.10 580.00 464.00
C 608.61 463.43 634.11 442.02 643.67 414.67 C 653.24 387.33 631.51 351.00 600.00 351.00
C 566.79 351.00 533.17 352.12 500.00 351.00 C 466.83 349.88 433.02 353.98 400.00 351.00
C 400.00 355.91 399.66 362.23 400.00 367.00 C 400.34 371.77 398.99 377.70 400.00 382.00 C 401.01 386.30 397.65 393.64 400.00 397.00 Z"/>
</g>
<g fill="None" fill-opacity="0.0" stroke="#808B8C" stroke-opacity="1.00" stroke-width="0.3"><path d="
M 334.00 364.00 
C 334.00 359.92 333.33 355.40 333.00 352.00
C 333.00 356.08 333.67 360.60 334.00 364.00 Z"/>
</g>
<g fill="None" fill-opacity="0.0" stroke="#5F819C" stroke-opacity="1.00" stroke-width="0.3"><path d="
M 334.00 377.00 
C 335.51 385.44 334.12 396.48 334.00 405.00 C 333.88 413.52 336.03 423.84 334.00 432.00
C 332.96 436.18 323.48 433.12 318.00 434.00 C 312.52 434.88 314.24 444.47 311.67 447.67 C 309.10 450.88 310.66 462.08 308.00 464.00
C 376.00 464.00 444.00 464.00 512.00 464.00
C 514.67 464.00 517.33 464.00 520.00 464.00
C 485.60 414.03 416.85 440.72 365.00 434.00
C 364.42 425.50 365.77 415.33 365.00 407.00 C 364.23 398.67 366.47 387.72 365.00 380.00 C 363.53 372.28 368.78 360.92 364.00 355.00
C 364.00 355.00 363.50 354.95 363.00 355.00
C 358.19 355.45 351.05 362.39 347.75 365.75 C 344.45 369.11 335.60 372.65 334.00 377.00 Z"/>
</g>
<g fill="None" fill-opacity="0.0" stroke="#6B767A" stroke-opacity="1.00" stroke-width="0.3"><path d="
M 746.00 408.00 
C 746.57 402.09 746.58 394.98 746.00 389.00
C 746.00 395.33 746.00 401.67 746.00 408.00 Z"/>
</g>
<g fill="None" fill-opacity="0.0" stroke="#000912" stroke-opacity="1.00" stroke-width="0.3"><path d="
M 473.00 397.00 
C 448.82 395.08 424.22 398.44 400.00 397.00
C 402.70 400.85 413.06 396.84 418.00 398.00 C 422.94 399.16 431.42 397.28 437.00 398.00 C 442.58 398.72 450.29 397.24 456.00 398.00 C 461.71 398.76 468.08 397.09 473.00 397.00 Z"/>
</g>
<g fill="None" fill-opacity="0.0" stroke="#647078" stroke-opacity="1.00" stroke-width="0.3"><path d="
M 285.00 433.00 
C 284.75 432.73 285.00 432.00 285.00 432.00
C 283.03 432.00 278.74 432.84 277.00 432.00
C 279.13 433.51 282.16 433.00 285.00 433.00 Z"/>
</g>
<g fill="None" fill-opacity="0.0" stroke="#8598A2" stroke-opacity="1.00" stroke-width="0.3"><path d="
M 285.00 433.00 
C 286.00 433.00 287.00 433.00 288.00 433.00
C 292.39 433.00 300.70 434.44 304.00 432.00
C 297.67 432.00 291.33 432.00 285.00 432.00
C 285.00 432.00 284.75 432.73 285.00 433.00 Z"/>
</g>
<g fill="None" fill-opacity="0.0" stroke="#3D5B74" stroke-opacity="1.00" stroke-width="0.3"><path d="
M 288.00 433.00 
C 287.47 437.44 282.95 444.01 283.32 448.32 C 283.69 452.64 277.72 460.53 280.00 464.00
C 289.33 464.00 298.67 464.00 308.00 464.00
C 310.66 462.08 309.10 450.88 311.67 447.67 C 314.24 444.47 312.52 434.88 318.00 434.00 C 323.48 433.12 332.96 436.18 334.00 432.00
C 331.97 434.90 322.57 432.53 319.00 433.00 C 315.43 433.47 308.19 433.82 305.00 432.00
C 305.00 432.00 304.32 431.76 304.00 432.00
C 300.70 434.44 292.39 433.00 288.00 433.00 Z"/>
</g>
<g fill="None" fill-opacity="0.0" stroke="#273F4F" stroke-opacity="1.00" stroke-width="0.3"><path d="
M 512.00 464.00 
C 444.00 464.00 376.00 464.00 308.00 464.00
C 298.67 464.00 289.33 464.00 280.00 464.00
C 282.78 468.22 295.61 463.69 301.00 465.00 C 306.39 466.31 315.68 464.41 322.00 465.00 C 328.32 465.59 336.21 464.75 343.00 465.00 C 349.79 465.25 358.04 464.88 365.00 465.00 C 371.96 465.12 379.00 464.94 386.00 465.00 C 393.00 465.06 399.97 464.96 407.00 465.00 C 414.03 465.04 420.92 464.95 428.00 465.00 C 435.09 465.05 442.93 464.92 450.00 465.00 C 457.07 465.08 464.01 464.83 471.00 465.00 C 477.99 465.17 485.11 464.62 492.00 465.00 C 498.89 465.38 505.87 464.59 512.00 464.00 Z"/>
</g>
<g fill="None" fill-opacity="0.0" stroke="#7A898E" stroke-opacity="1.00" stroke-width="0.3"><path d="
M 580.00 464.00 
C 575.18 464.10 565.36 465.88 561.00 464.00
C 565.57 466.92 575.19 464.58 580.00 464.00 Z"/>
</g>
<g fill="None" fill-opacity="0.0" stroke="#06161D" stroke-opacity="1.00" stroke-width="0.3"><path d="
M 309.00 500.00 
C 318.00 500.00 327.00 500.00 336.00 500.00
C 345.32 500.00 354.68 499.97 364.00 500.00 C 373.32 500.03 382.69 499.93 392.00 500.00 C 401.31 500.07 410.73 499.84 420.00 500.00 C 429.27 500.16 438.80 499.65 448.00 500.00 C 457.20 500.35 466.96 499.23 476.00 500.00 C 485.04 500.77 495.32 498.29 504.00 500.00 C 512.68 501.71 525.16 496.37 533.00 500.00
C 525.39 494.82 510.61 500.72 501.00 499.00 C 491.39 497.28 479.21 499.74 469.00 499.00 C 458.79 498.26 447.51 499.25 437.00 499.00 C 426.49 498.75 414.56 498.95 404.00 499.00 C 393.44 499.05 382.43 498.60 372.00 499.00 C 361.57 499.40 350.13 497.98 340.00 499.00 C 329.87 500.02 317.89 496.22 309.00 500.00 Z"/>
</g>
<g fill="None" fill-opacity="0.0" stroke="#3E5B74" stroke-opacity="1.00" stroke-width="0.3"><path d="
M 307.00 533.00 
C 306.56 528.12 306.35 521.84 307.00 517.00 C 307.64 512.16 305.05 504.40 307.00 500.00
C 298.49 498.65 293.90 501.80 285.00 500.00 C 276.10 498.20 273.72 503.83 275.00 512.00 C 276.28 520.17 273.98 525.42 276.00 533.00
C 286.33 533.00 296.67 533.00 307.00 533.00 Z"/>
</g>
<g fill="None" fill-opacity="0.0" stroke="#99A9B0" stroke-opacity="1.00" stroke-width="0.3"><path d="
M 307.00 533.00 
C 307.00 533.00 307.50 533.00 308.00 533.00
C 308.96 522.42 307.28 511.60 308.00 501.00
C 317.33 501.00 326.67 501.00 336.00 501.00
C 335.96 501.00 336.00 500.00 336.00 500.00
C 327.00 500.00 318.00 500.00 309.00 500.00
C 308.50 500.00 307.50 500.00 307.00 500.00
C 305.05 504.40 307.64 512.16 307.00 517.00 C 306.35 521.84 306.56 528.12 307.00 533.00 Z"/>
</g>
<g fill="None" fill-opacity="0.0" stroke="#84918F" stroke-opacity="1.00" stroke-width="0.3"><path d="
M 336.00 501.00 
C 402.00 501.00 468.00 501.00 534.00 501.00
C 534.11 502.00 533.53 503.73 535.00 504.00
C 534.66 501.75 534.93 501.31 533.00 500.00
C 525.16 496.37 512.68 501.71 504.00 500.00 C 495.32 498.29 485.04 500.77 476.00 500.00 C 466.96 499.23 457.20 500.35 448.00 500.00 C 438.80 499.65 429.27 500.16 420.00 500.00 C 410.73 499.84 401.31 500.07 392.00 500.00 C 382.69 499.93 373.32 500.03 364.00 500.00 C 354.68 499.97 345.32 500.00 336.00 500.00
C 336.00 500.00 335.96 501.00 336.00 501.00 Z"/>
</g>
<g fill="None" fill-opacity="0.0" stroke="#60819A" stroke-opacity="1.00" stroke-width="0.3"><path d="
M 596.00 534.00 
C 608.72 532.18 622.43 523.76 635.00 520.00
C 634.76 518.12 632.45 518.54 632.00 517.00
C 612.06 508.05 591.33 500.74 569.00 500.00
C 569.82 510.56 570.32 521.16 570.00 532.00
C 578.75 532.63 587.53 532.28 596.00 534.00 Z"/>
</g>
<g fill="None" fill-opacity="0.0" stroke="#F9FBF8" stroke-opacity="1.00" stroke-width="0.3"><path d="
M 308.00 533.00 
C 314.96 532.99 322.05 533.01 329.00 533.00 C 335.95 532.99 343.10 533.00 350.00 533.00 C 356.90 533.00 363.11 533.01 370.00 533.00 C 376.89 532.99 384.09 533.01 391.00 533.00 C 397.91 532.99 405.13 533.03 412.00 533.00 C 418.87 532.97 425.16 533.06 432.00 533.00 C 438.84 532.94 446.18 533.13 453.00 533.00 C 459.82 532.87 467.32 533.28 474.00 533.00 C 480.68 532.72 487.61 533.65 494.00 533.00 C 500.39 532.35 509.13 534.37 515.00 533.00 C 520.87 531.63 530.45 536.19 535.00 533.00
C 535.00 526.00 535.00 519.00 535.00 512.00
C 535.00 509.43 535.38 506.54 535.00 504.00
C 533.53 503.73 534.11 502.00 534.00 501.00
C 468.00 501.00 402.00 501.00 336.00 501.00
C 326.67 501.00 317.33 501.00 308.00 501.00
C 307.28 511.60 308.96 522.42 308.00 533.00 Z"/>
</g>
<g fill="None" fill-opacity="0.0" stroke="#959FA5" stroke-opacity="1.00" stroke-width="0.3"><path d="
M 535.00 533.00 
C 538.67 530.43 535.33 515.45 535.00 512.00
C 535.00 519.00 535.00 526.00 535.00 533.00 Z"/>
</g>
<g fill="None" fill-opacity="0.0" stroke="#335069" stroke-opacity="1.00" stroke-width="0.3"><path d="
M 596.00 534.00 
C 612.03 537.26 625.19 546.63 639.00 555.00
C 636.86 550.91 651.90 550.15 656.23 545.23 C 660.55 540.31 667.99 538.87 674.00 544.00
C 662.42 532.42 646.87 523.05 632.00 517.00
C 632.45 518.54 634.76 518.12 635.00 520.00
C 622.43 523.76 608.72 532.18 596.00 534.00 Z"/>
</g>
<g fill="None" fill-opacity="0.0" stroke="#60829C" stroke-opacity="1.00" stroke-width="0.3"><path d="
M 639.00 555.00 
C 667.55 572.31 686.45 610.23 681.33 643.33 C 676.21 676.43 659.07 706.32 625.22 719.22 C 591.38 732.13 539.04 727.00 501.00 727.00
C 501.79 731.34 499.94 738.99 501.00 743.00 C 502.06 747.01 498.52 755.54 502.00 758.00
C 529.80 760.61 567.34 757.14 594.00 757.00 C 620.66 756.86 642.60 746.92 662.77 732.77 C 682.94 718.62 693.81 702.47 704.02 681.02 C 714.23 659.58 715.93 623.70 708.93 601.07 C 701.92 578.45 692.28 559.62 674.00 544.00
C 667.99 538.87 660.55 540.31 656.23 545.23 C 651.90 550.15 636.86 550.91 639.00 555.00 Z"/>
</g>
<g fill="None" fill-opacity="0.0" stroke="#5F819C" stroke-opacity="1.00" stroke-width="0.3"><path d="
M 308.00 570.00 
C 308.21 574.91 309.80 582.94 311.99 587.01 C 314.19 591.07 315.65 599.45 320.00 601.00
C 324.67 601.00 329.33 601.00 334.00 601.00
C 332.94 625.54 335.86 650.89 333.00 675.00
C 332.94 675.49 333.00 676.50 333.00 677.00
C 333.34 677.23 334.00 677.00 334.00 677.00
C 333.98 675.67 334.01 674.33 334.00 673.00
C 343.79 682.40 353.92 691.66 364.00 700.00
C 364.24 700.25 365.00 700.00 365.00 700.00
C 364.92 668.34 365.06 634.51 365.00 602.00
C 394.56 603.15 432.26 600.47 461.00 602.00 C 489.74 603.53 510.00 592.90 523.00 569.00
C 451.84 570.83 379.58 570.00 308.00 570.00 Z"/>
</g>
<g fill="None" fill-opacity="0.0" stroke="#F9FBF7" stroke-opacity="1.00" stroke-width="0.3"><path d="
M 550.00 591.00 
C 537.28 611.98 518.72 626.92 496.00 635.00
C 466.57 644.75 431.82 637.98 400.00 640.00
C 400.46 645.01 399.39 651.09 400.00 656.00 C 400.61 660.91 398.83 667.48 400.00 672.00 C 401.17 676.52 397.49 684.42 400.00 688.00
C 423.10 687.44 446.98 688.75 470.00 688.00 C 493.02 687.25 517.26 689.44 540.00 688.00 C 562.74 686.56 586.52 691.99 608.00 686.00
C 639.99 676.81 654.97 638.68 640.92 609.08 C 626.88 579.48 593.56 564.56 561.00 569.00
C 559.60 577.37 554.19 584.08 550.00 591.00 Z"/>
</g>
<g fill="None" fill-opacity="0.0" stroke="#415E77" stroke-opacity="1.00" stroke-width="0.3"><path d="
M 280.00 603.00 
C 288.17 602.01 296.88 604.32 305.00 603.00
C 309.69 602.24 314.40 601.00 320.00 601.00
C 315.65 599.45 314.19 591.07 311.99 587.01 C 309.80 582.94 308.21 574.91 308.00 570.00
C 298.33 570.00 288.67 570.00 279.00 570.00
C 280.47 581.03 283.64 591.50 287.00 602.00
C 284.52 601.28 281.82 602.56 280.00 603.00 Z"/>
</g>
<g fill="None" fill-opacity="0.0" stroke="#1B2A31" stroke-opacity="1.00" stroke-width="0.3"><path d="
M 496.00 635.00 
C 518.72 626.92 537.28 611.98 550.00 591.00
C 542.96 591.72 545.68 599.36 541.00 603.00
C 537.75 602.77 540.92 598.34 536.00 600.00
C 540.77 604.36 531.21 606.55 532.00 612.00
C 522.62 612.53 520.98 621.03 512.00 621.00
C 513.59 623.27 511.00 625.53 511.00 628.00
C 506.96 626.81 501.35 633.32 496.00 631.00
C 495.84 632.72 497.39 633.55 496.00 635.00 Z"/>
</g>
<g fill="None" fill-opacity="0.0" stroke="#F6F9F7" stroke-opacity="1.00" stroke-width="0.3"><path d="
M 305.00 603.00 
C 296.88 604.32 288.17 602.01 280.00 603.00
C 278.33 603.00 276.67 603.00 275.00 603.00
C 275.00 666.00 275.00 729.00 275.00 792.00
C 285.00 792.00 295.00 792.00 305.00 792.00
C 305.01 784.04 304.99 775.94 305.00 768.00 C 305.01 760.06 304.97 751.89 305.00 744.00 C 305.03 736.11 304.94 728.86 305.00 721.00 C 305.06 713.14 304.87 704.84 305.00 697.00 C 305.13 689.16 304.71 680.71 305.00 673.00 C 305.29 665.29 304.32 657.46 305.00 650.00 C 305.68 642.54 303.56 633.01 305.00 626.00 C 306.44 618.99 301.67 608.91 305.00 603.00 Z"/>
</g>
<g fill="None" fill-opacity="0.0" stroke="#F7FAF7" stroke-opacity="1.00" stroke-width="0.3"><path d="
M 334.00 677.00 
C 334.80 685.85 333.78 695.94 333.00 704.00
C 333.00 730.67 333.00 757.34 333.00 784.00
C 333.19 785.96 333.77 789.44 334.00 792.00
C 334.26 792.25 335.00 792.00 335.00 792.00
C 339.80 788.45 357.66 790.43 364.00 791.00
C 363.99 761.09 361.31 729.77 364.00 700.00
C 353.92 691.66 343.79 682.40 334.00 673.00
C 334.01 674.33 333.98 675.67 334.00 677.00 Z"/>
</g>
<g fill="None" fill-opacity="0.0" stroke="#041119" stroke-opacity="1.00" stroke-width="0.3"><path d="
M 364.00 792.00 
C 354.51 792.87 344.53 792.00 335.00 792.00
C 335.00 792.00 334.26 792.25 334.00 792.00
C 332.27 790.33 333.00 786.45 333.00 784.00
C 333.00 757.34 333.00 730.67 333.00 704.00
C 333.00 695.00 333.00 686.00 333.00 677.00
C 333.00 676.50 332.94 675.49 333.00 675.00
C 330.67 713.35 332.67 753.83 332.00 793.00
C 336.94 792.35 344.30 793.86 349.00 793.00 C 353.70 792.14 360.79 795.21 364.00 792.00 Z"/>
</g>
<g fill="None" fill-opacity="0.0" stroke="#7B868A" stroke-opacity="1.00" stroke-width="0.3"><path d="
M 333.00 704.00 
C 333.78 695.94 334.80 685.85 334.00 677.00
C 334.00 677.00 333.34 677.23 333.00 677.00
C 333.00 686.00 333.00 695.00 333.00 704.00 Z"/>
</g>
<g fill="None" fill-opacity="0.0" stroke="#06141C" stroke-opacity="1.00" stroke-width="0.3"><path d="
M 400.00 688.00 
C 402.96 692.23 415.54 687.69 421.00 689.00 C 426.46 690.31 435.69 688.40 442.00 689.00 C 448.31 689.60 456.29 688.73 463.00 689.00 C 469.71 689.27 477.10 688.87 484.00 689.00 C 490.90 689.13 497.96 688.92 505.00 689.00 C 512.04 689.08 519.93 688.91 527.00 689.00 C 534.07 689.09 540.97 688.83 548.00 689.00 C 555.03 689.17 561.99 688.63 569.00 689.00 C 576.01 689.37 583.01 688.19 590.00 689.00 C 596.99 689.81 603.28 688.13 608.00 686.00
C 586.52 691.99 562.74 686.56 540.00 688.00 C 517.26 689.44 493.02 687.25 470.00 688.00 C 446.98 688.75 423.10 687.44 400.00 688.00 Z"/>
</g>
<g fill="None" fill-opacity="0.0" stroke="#7C8992" stroke-opacity="1.00" stroke-width="0.3"><path d="
M 364.00 791.00 
C 364.00 791.50 364.00 792.00 364.00 792.00
C 368.41 787.76 363.64 775.41 365.00 769.00 C 366.36 762.59 364.45 753.08 365.00 746.00 C 365.55 738.92 364.91 730.35 365.00 723.00 C 365.09 715.65 365.30 707.42 365.00 700.00
C 365.00 700.00 364.24 700.25 364.00 700.00
C 361.31 729.77 363.99 761.09 364.00 791.00 Z"/>
</g>
<g fill="None" fill-opacity="0.0" stroke="#F8FBF7" stroke-opacity="1.00" stroke-width="0.3"><path d="
M 400.00 757.00 
C 423.15 754.91 446.81 758.56 470.00 757.00
C 470.00 755.33 470.00 753.67 470.00 752.00
C 469.26 743.73 470.56 735.28 470.00 727.00
C 459.17 726.33 447.01 728.33 437.00 726.00
C 424.02 726.53 412.20 722.36 400.00 720.00
C 400.00 732.33 400.00 744.67 400.00 757.00 Z"/>
</g>
<g fill="None" fill-opacity="0.0" stroke="#748489" stroke-opacity="1.00" stroke-width="0.3"><path d="
M 470.00 752.00 
C 470.02 752.09 471.00 752.00 471.00 752.00
C 471.00 743.33 471.00 734.67 471.00 726.00
C 459.67 726.00 448.33 726.00 437.00 726.00
C 447.01 728.33 459.17 726.33 470.00 727.00
C 470.56 735.28 469.26 743.73 470.00 752.00 Z"/>
</g>
<g fill="None" fill-opacity="0.0" stroke="#395771" stroke-opacity="1.00" stroke-width="0.3"><path d="
M 502.00 758.00 
C 498.52 755.54 502.06 747.01 501.00 743.00 C 499.94 738.99 501.79 731.34 501.00 727.00
C 491.33 727.00 481.67 727.00 472.00 727.00
C 472.00 737.00 472.00 747.00 472.00 757.00
C 482.02 756.60 492.37 757.10 502.00 758.00 Z"/>
</g>
<g fill="None" fill-opacity="0.0" stroke="#1B2A2F" stroke-opacity="1.00" stroke-width="0.3"><path d="
M 669.00 769.00 
C 685.30 759.32 699.71 747.41 712.00 732.00
C 710.47 732.25 709.82 734.55 708.00 734.00
C 710.13 730.65 707.44 731.74 705.00 732.00
C 703.24 738.23 693.56 747.37 687.92 752.92 C 682.28 758.47 676.30 762.51 669.00 769.00 Z"/>
</g>
<g fill="None" fill-opacity="0.0" stroke="#9AA6AB" stroke-opacity="1.00" stroke-width="0.3"><path d="
M 400.00 757.00 
C 400.00 757.00 399.75 757.74 400.00 758.00
C 405.54 758.50 411.44 758.01 417.00 758.00 C 422.56 757.99 429.61 758.44 435.00 758.00 C 440.39 757.56 447.13 759.28 452.00 758.00 C 456.87 756.72 466.17 760.78 470.00 758.00
C 471.17 756.12 470.93 754.49 471.00 752.00
C 471.00 752.00 470.02 752.09 470.00 752.00
C 470.00 753.67 470.00 755.33 470.00 757.00
C 446.81 758.56 423.15 754.91 400.00 757.00 Z"/>
</g>
<g fill="None" fill-opacity="0.0" stroke="#08151D" stroke-opacity="1.00" stroke-width="0.3"><path d="
M 470.00 758.00 
C 466.17 760.78 456.87 756.72 452.00 758.00 C 447.13 759.28 440.39 757.56 435.00 758.00 C 429.61 758.44 422.56 757.99 417.00 758.00 C 411.44 758.01 405.54 758.50 400.00 758.00
C 404.07 762.20 418.93 758.05 425.00 759.00 C 431.07 759.95 444.15 759.37 450.00 759.00 C 455.85 758.63 467.67 761.75 470.00 758.00 Z"/>
</g>
<g fill="None" fill-opacity="0.0" stroke="#7E878E" stroke-opacity="1.00" stroke-width="0.3"><path d="
M 334.00 792.00 
C 333.77 789.44 333.19 785.96 333.00 784.00
C 333.00 786.45 332.27 790.33 334.00 792.00 Z"/>
</g>
<g fill="None" fill-opacity="0.0" stroke="#BFC8CB" stroke-opacity="1.00" stroke-width="0.3"><path d="
M 335.00 792.00 
C 344.53 792.00 354.51 792.87 364.00 792.00
C 364.00 792.00 364.00 791.50 364.00 791.00
C 357.66 790.43 339.80 788.45 335.00 792.00 Z"/>
</g>
<g fill="None" fill-opacity="0.0" stroke="#28373C" stroke-opacity="1.00" stroke-width="0.3"><path d="
M 508.00 800.00 
C 508.00 797.67 508.00 795.33 508.00 793.00
C 536.20 791.32 564.85 795.23 593.00 793.00
C 579.31 791.53 562.41 791.51 548.00 792.00 C 533.59 792.49 516.91 789.34 505.00 795.00
C 506.42 796.22 507.63 798.29 508.00 800.00 Z"/>
</g>
<g fill="#14263A" fill-opacity="1.00" stroke="None">
<path d="
M 0.00 1024.00 
L 508.00 1024.00
C 509.12 949.35 506.51 874.64 508.00 800.00
C 507.63 798.29 506.42 796.22 505.00 795.00
C 516.91 789.34 533.59 792.49 548.00 792.00 C 562.41 791.51 579.31 791.53 593.00 793.00
C 617.56 791.05 650.09 785.81 669.00 769.00
C 676.30 762.51 682.28 758.47 687.92 752.92 C 693.56 747.37 703.24 738.23 705.00 732.00
C 707.44 731.74 710.13 730.65 708.00 734.00
C 709.82 734.55 710.47 732.25 712.00 732.00
C 762.43 668.76 759.16 568.84 694.00 515.00
C 723.71 486.11 743.61 449.02 746.00 408.00
C 746.00 401.67 746.00 395.33 746.00 389.00
C 746.00 306.41 664.45 242.00 586.00 242.00
C 577.91 242.00 567.90 242.58 560.00 242.00 C 552.10 241.42 541.19 243.54 534.00 242.00 C 526.81 240.46 512.84 245.84 508.00 241.00
C 504.76 237.76 507.66 227.52 508.00 224.00
C 508.00 149.33 508.00 74.67 508.00 0.00
L 0.00 0.00
L 0.00 1024.00
M 364.00 244.00 
C 368.12 248.12 363.95 258.76 365.00 265.00 C 366.05 271.24 364.70 281.23 365.00 288.00 C 365.30 294.77 365.34 303.15 365.00 310.00 C 364.66 316.85 366.11 326.49 365.00 333.00 C 363.89 339.51 368.10 349.93 364.00 355.00
C 368.78 360.92 363.53 372.28 365.00 380.00 C 366.47 387.72 364.23 398.67 365.00 407.00 C 365.77 415.33 364.42 425.50 365.00 434.00
C 416.85 440.72 485.60 414.03 520.00 464.00
C 517.33 464.00 514.67 464.00 512.00 464.00
C 505.87 464.59 498.89 465.38 492.00 465.00 C 485.11 464.62 477.99 465.17 471.00 465.00 C 464.01 464.83 457.07 465.08 450.00 465.00 C 442.93 464.92 435.09 465.05 428.00 465.00 C 420.92 464.95 414.03 465.04 407.00 465.00 C 399.97 464.96 393.00 465.06 386.00 465.00 C 379.00 464.94 371.96 465.12 365.00 465.00 C 358.04 464.88 349.79 465.25 343.00 465.00 C 336.21 464.75 328.32 465.59 322.00 465.00 C 315.68 464.41 306.39 466.31 301.00 465.00 C 295.61 463.69 282.78 468.22 280.00 464.00
C 277.72 460.53 283.69 452.64 283.32 448.32 C 282.95 444.01 287.47 437.44 288.00 433.00
C 287.00 433.00 286.00 433.00 285.00 433.00
C 282.16 433.00 279.13 433.51 277.00 432.00
C 270.83 427.64 276.42 411.76 275.00 403.00 C 273.58 394.24 275.64 380.77 275.00 371.00 C 274.36 361.23 275.30 349.18 275.00 339.00 C 274.70 328.82 275.14 318.40 275.00 308.00 C 274.86 297.60 275.07 286.53 275.00 276.00 C 274.93 265.47 275.05 254.56 275.00 244.00
C 284.67 244.00 294.33 244.00 304.00 244.00
C 308.15 246.90 303.79 258.57 305.00 264.00 C 306.21 269.43 304.46 278.71 305.00 285.00 C 305.54 291.29 304.76 299.32 305.00 306.00 C 305.24 312.68 304.90 320.15 305.00 327.00 C 305.10 333.85 304.98 341.07 305.00 348.00 C 305.02 354.93 305.04 362.03 305.00 369.00 C 304.97 375.97 305.12 383.03 305.00 390.00 C 304.88 396.97 305.28 404.03 305.00 411.00 C 304.72 417.97 305.63 425.06 305.00 432.00
C 308.19 433.82 315.43 433.47 319.00 433.00 C 322.57 432.53 331.97 434.90 334.00 432.00
C 336.03 423.84 333.88 413.52 334.00 405.00 C 334.12 396.48 335.51 385.44 334.00 377.00
C 330.43 357.05 331.76 334.19 332.00 313.00 C 332.24 291.81 330.23 268.34 333.00 248.00
C 333.00 247.15 332.57 244.71 333.00 244.00
C 335.43 241.47 344.27 242.91 348.00 243.00 C 351.73 243.09 361.42 241.42 364.00 244.00
M 471.00 314.00 
C 468.65 312.71 455.28 316.70 449.00 315.00 C 442.72 313.30 430.36 316.81 424.00 315.00 C 417.64 313.19 404.45 318.60 400.00 314.00
C 399.75 313.74 400.00 313.00 400.00 313.00
C 400.00 302.00 400.00 291.00 400.00 280.00
C 423.33 280.00 446.67 280.00 470.00 280.00
C 472.68 281.88 471.26 292.17 471.00 296.00 C 470.74 299.83 472.65 310.28 471.00 314.00
M 602.00 281.00 
C 614.36 281.00 628.76 284.81 639.68 289.32 C 650.59 293.84 659.43 299.21 668.25 306.75 C 677.07 314.29 683.98 320.71 690.75 330.25 C 697.52 339.79 701.65 349.76 705.93 361.07 C 710.21 372.39 712.20 389.39 712.00 402.00 C 711.80 414.61 708.51 429.55 704.22 440.22 C 699.94 450.90 695.10 462.08 688.08 470.08 C 681.07 478.09 675.31 489.73 665.75 493.75 C 656.20 497.78 644.05 480.15 633.00 482.00
C 664.21 461.32 687.15 421.30 680.00 383.00 C 672.85 344.70 638.70 314.97 600.00 314.00
C 557.19 314.00 514.51 314.14 472.00 313.00
C 472.00 302.00 472.00 291.00 472.00 280.00
C 515.17 280.67 559.65 278.67 602.00 281.00
M 600.00 350.00 
C 599.92 350.01 600.00 351.00 600.00 351.00
C 631.51 351.00 653.24 387.33 643.67 414.67 C 634.11 442.02 608.61 463.43 580.00 464.00
C 575.19 464.58 565.57 466.92 561.00 464.00
C 554.23 459.68 553.55 446.05 546.75 440.25 C 539.94 434.46 536.03 425.15 527.75 420.25 C 519.48 415.34 513.03 409.04 503.77 405.23 C 494.51 401.41 483.30 397.82 473.00 397.00
C 468.08 397.09 461.71 398.76 456.00 398.00 C 450.29 397.24 442.58 398.72 437.00 398.00 C 431.42 397.28 422.94 399.16 418.00 398.00 C 413.06 396.84 402.70 400.85 400.00 397.00
C 397.65 393.64 401.01 386.30 400.00 382.00 C 398.99 377.70 400.34 371.77 400.00 367.00 C 399.66 362.23 400.00 355.91 400.00 351.00
C 400.00 350.50 400.00 350.00 400.00 350.00
C 404.59 345.26 416.92 350.42 424.00 349.00 C 431.08 347.58 442.16 349.67 450.00 349.00 C 457.84 348.33 466.78 349.29 475.00 349.00 C 483.22 348.71 492.62 349.14 501.00 349.00 C 509.38 348.86 517.54 349.06 526.00 349.00 C 534.46 348.94 543.51 349.03 552.00 349.00 C 560.49 348.97 568.48 349.01 577.00 349.00 C 585.52 348.99 594.44 349.01 603.00 349.00
C 602.74 350.39 600.95 349.78 600.00 350.00
M 533.00 500.00 
C 534.93 501.31 534.66 501.75 535.00 504.00
C 535.38 506.54 535.00 509.43 535.00 512.00
C 535.33 515.45 538.67 530.43 535.00 533.00
C 530.45 536.19 520.87 531.63 515.00 533.00 C 509.13 534.37 500.39 532.35 494.00 533.00 C 487.61 533.65 480.68 532.72 474.00 533.00 C 467.32 533.28 459.82 532.87 453.00 533.00 C 446.18 533.13 438.84 532.94 432.00 533.00 C 425.16 533.06 418.87 532.97 412.00 533.00 C 405.13 533.03 397.91 532.99 391.00 533.00 C 384.09 533.01 376.89 532.99 370.00 533.00 C 363.11 533.01 356.90 533.00 350.00 533.00 C 343.10 533.00 335.95 532.99 329.00 533.00 C 322.05 533.01 314.96 532.99 308.00 533.00
C 307.50 533.00 307.00 533.00 307.00 533.00
C 296.67 533.00 286.33 533.00 276.00 533.00
C 273.98 525.42 276.28 520.17 275.00 512.00 C 273.72 503.83 276.10 498.20 285.00 500.00 C 293.90 501.80 298.49 498.65 307.00 500.00
C 307.50 500.00 308.50 500.00 309.00 500.00
C 317.89 496.22 329.87 500.02 340.00 499.00 C 350.13 497.98 361.57 499.40 372.00 499.00 C 382.43 498.60 393.44 499.05 404.00 499.00 C 414.56 498.95 426.49 498.75 437.00 499.00 C 447.51 499.25 458.79 498.26 469.00 499.00 C 479.21 499.74 491.39 497.28 501.00 499.00 C 510.61 500.72 525.39 494.82 533.00 500.00
M 632.00 517.00 
C 646.87 523.05 662.42 532.42 674.00 544.00
C 692.28 559.62 701.92 578.45 708.93 601.07 C 715.93 623.70 714.23 659.58 704.02 681.02 C 693.81 702.47 682.94 718.62 662.77 732.77 C 642.60 746.92 620.66 756.86 594.00 757.00 C 567.34 757.14 529.80 760.61 502.00 758.00
C 492.37 757.10 482.02 756.60 472.00 757.00
C 472.00 747.00 472.00 737.00 472.00 727.00
C 481.67 727.00 491.33 727.00 501.00 727.00
C 539.04 727.00 591.38 732.13 625.22 719.22 C 659.07 706.32 676.21 676.43 681.33 643.33 C 686.45 610.23 667.55 572.31 639.00 555.00
C 625.19 546.63 612.03 537.26 596.00 534.00
C 587.53 532.28 578.75 532.63 570.00 532.00
C 570.32 521.16 569.82 510.56 569.00 500.00
C 591.33 500.74 612.06 508.05 632.00 517.00
M 365.00 700.00 
C 365.30 707.42 365.09 715.65 365.00 723.00 C 364.91 730.35 365.55 738.92 365.00 746.00 C 364.45 753.08 366.36 762.59 365.00 769.00 C 363.64 775.41 368.41 787.76 364.00 792.00
C 360.79 795.21 353.70 792.14 349.00 793.00 C 344.30 793.86 336.94 792.35 332.00 793.00
C 332.67 753.83 330.67 713.35 333.00 675.00
C 335.86 650.89 332.94 625.54 334.00 601.00
C 329.33 601.00 324.67 601.00 320.00 601.00
C 314.40 601.00 309.69 602.24 305.00 603.00
C 301.67 608.91 306.44 618.99 305.00 626.00 C 303.56 633.01 305.68 642.54 305.00 650.00 C 304.32 657.46 305.29 665.29 305.00 673.00 C 304.71 680.71 305.13 689.16 305.00 697.00 C 304.87 704.84 305.06 713.14 305.00 721.00 C 304.94 728.86 305.03 736.11 305.00 744.00 C 304.97 751.89 305.01 760.06 305.00 768.00 C 304.99 775.94 305.01 784.04 305.00 792.00
C 295.00 792.00 285.00 792.00 275.00 792.00
C 275.00 729.00 275.00 666.00 275.00 603.00
C 276.67 603.00 278.33 603.00 280.00 603.00
C 281.82 602.56 284.52 601.28 287.00 602.00
C 283.64 591.50 280.47 581.03 279.00 570.00
C 288.67 570.00 298.33 570.00 308.00 570.00
C 379.58 570.00 451.84 570.83 523.00 569.00
C 510.00 592.90 489.74 603.53 461.00 602.00 C 432.26 600.47 394.56 603.15 365.00 602.00
C 365.06 634.51 364.92 668.34 365.00 700.00
M 608.00 686.00 
C 603.28 688.13 596.99 689.81 590.00 689.00 C 583.01 688.19 576.01 689.37 569.00 689.00 C 561.99 688.63 555.03 689.17 548.00 689.00 C 540.97 688.83 534.07 689.09 527.00 689.00 C 519.93 688.91 512.04 689.08 505.00 689.00 C 497.96 688.92 490.90 689.13 484.00 689.00 C 477.10 688.87 469.71 689.27 463.00 689.00 C 456.29 688.73 448.31 689.60 442.00 689.00 C 435.69 688.40 426.46 690.31 421.00 689.00 C 415.54 687.69 402.96 692.23 400.00 688.00
C 397.49 684.42 401.17 676.52 400.00 672.00 C 398.83 667.48 400.61 660.91 400.00 656.00 C 399.39 651.09 400.46 645.01 400.00 640.00
C 431.82 637.98 466.57 644.75 496.00 635.00
C 497.39 633.55 495.84 632.72 496.00 631.00
C 501.35 633.32 506.96 626.81 511.00 628.00
C 511.00 625.53 513.59 623.27 512.00 621.00
C 520.98 621.03 522.62 612.53 532.00 612.00
C 531.21 606.55 540.77 604.36 536.00 600.00
C 540.92 598.34 537.75 602.77 541.00 603.00
C 545.68 599.36 542.96 591.72 550.00 591.00
C 554.19 584.08 559.60 577.37 561.00 569.00
C 593.56 564.56 626.88 579.48 640.92 609.08 C 654.97 638.68 639.99 676.81 608.00 686.00
M 437.00 726.00 
C 448.33 726.00 459.67 726.00 471.00 726.00
C 471.00 734.67 471.00 743.33 471.00 752.00
C 470.93 754.49 471.17 756.12 470.00 758.00
C 467.67 761.75 455.85 758.63 450.00 759.00 C 444.15 759.37 431.07 759.95 425.00 759.00 C 418.93 758.05 404.07 762.20 400.00 758.00
C 399.75 757.74 400.00 757.00 400.00 757.00
C 400.00 744.67 400.00 732.33 400.00 720.00
C 412.20 722.36 424.02 726.53 437.00 726.00 Z"/>
</g>
<g fill="#FBFDF8" fill-opacity="1.00" stroke="None">
<path d="
M 508.00 224.00 
C 508.00 229.67 508.00 235.33 508.00 241.00
C 533.83 241.73 561.00 239.58 586.00 242.00
C 664.45 242.00 746.00 306.41 746.00 389.00
C 746.58 394.98 746.57 402.09 746.00 408.00
C 743.61 449.02 723.71 486.11 694.00 515.00
C 759.16 568.84 762.43 668.76 712.00 732.00
C 699.71 747.41 685.30 759.32 669.00 769.00
C 650.09 785.81 617.56 791.05 593.00 793.00
C 564.85 795.23 536.20 791.32 508.00 793.00
C 508.00 795.33 508.00 797.67 508.00 800.00
C 506.51 874.64 509.12 949.35 508.00 1024.00
L 1024.00 1024.00
L 1024.00 0.00
L 508.00 0.00
C 508.00 74.67 508.00 149.33 508.00 224.00 Z"/>
</g>
<g fill="#444E55" fill-opacity="1.00" stroke="None">
<path d="
M 508.00 241.00 
C 508.00 235.33 508.00 229.67 508.00 224.00
C 507.66 227.52 504.76 237.76 508.00 241.00 Z"/>
</g>
<g fill="#838F91" fill-opacity="1.00" stroke="None">
<path d="
M 586.00 242.00 
C 561.00 239.58 533.83 241.73 508.00 241.00
C 512.84 245.84 526.81 240.46 534.00 242.00 C 541.19 243.54 552.10 241.42 560.00 242.00 C 567.90 242.58 577.91 242.00 586.00 242.00 Z"/>
</g>
<g fill="#2A3B43" fill-opacity="1.00" stroke="None">
<path d="
M 333.00 244.00 
C 333.13 243.78 334.00 244.00 334.00 244.00
C 344.00 244.00 354.00 244.00 364.00 244.00
C 361.42 241.42 351.73 243.09 348.00 243.00 C 344.27 242.91 335.43 241.47 333.00 244.00 Z"/>
</g>
<g fill="#F9FCF9" fill-opacity="1.00" stroke="None">
<path d="
M 277.00 432.00 
C 278.74 432.84 283.03 432.00 285.00 432.00
C 291.33 432.00 297.67 432.00 304.00 432.00
C 301.19 400.92 305.47 369.20 304.00 338.00 C 302.53 306.80 305.10 275.23 304.00 244.00
C 294.33 244.00 284.67 244.00 275.00 244.00
C 275.05 254.56 274.93 265.47 275.00 276.00 C 275.07 286.53 274.86 297.60 275.00 308.00 C 275.14 318.40 274.70 328.82 275.00 339.00 C 275.30 349.18 274.36 361.23 275.00 371.00 C 275.64 380.77 273.58 394.24 275.00 403.00 C 276.42 411.76 270.83 427.64 277.00 432.00 Z"/>
</g>
<g fill="#B7C0C9" fill-opacity="1.00" stroke="None">
<path d="
M 304.00 432.00 
C 304.32 431.76 305.00 432.00 305.00 432.00
C 305.63 425.06 304.72 417.97 305.00 411.00 C 305.28 404.03 304.88 396.97 305.00 390.00 C 305.12 383.03 304.97 375.97 305.00 369.00 C 305.04 362.03 305.02 354.93 305.00 348.00 C 304.98 341.07 305.10 333.85 305.00 327.00 C 304.90 320.15 305.24 312.68 305.00 306.00 C 304.76 299.32 305.54 291.29 305.00 285.00 C 304.46 278.71 306.21 269.43 305.00 264.00 C 303.79 258.57 308.15 246.90 304.00 244.00
C 305.10 275.23 302.53 306.80 304.00 338.00 C 305.47 369.20 301.19 400.92 304.00 432.00 Z"/>
</g>
<g fill="#99A0A7" fill-opacity="1.00" stroke="None">
<path d="
M 333.00 248.00 
C 333.00 256.00 333.00 264.00 333.00 272.00
C 333.82 263.55 334.83 253.17 334.00 244.00
C 334.00 244.00 333.13 243.78 333.00 244.00
C 332.57 244.71 333.00 247.15 333.00 248.00 Z"/>
</g>
<g fill="#F8FBF8" fill-opacity="1.00" stroke="None">
<path d="
M 333.00 272.00 
C 333.00 298.67 333.00 325.33 333.00 352.00
C 333.33 355.40 334.00 359.92 334.00 364.00
C 334.00 368.33 334.00 372.67 334.00 377.00
C 335.60 372.65 344.45 369.11 347.75 365.75 C 351.05 362.39 358.19 355.45 363.00 355.00
C 368.15 344.85 362.29 330.51 364.00 319.00 C 365.71 307.49 363.13 294.02 364.00 282.00 C 364.87 269.98 363.35 256.18 364.00 244.00
C 354.00 244.00 344.00 244.00 334.00 244.00
C 334.83 253.17 333.82 263.55 333.00 272.00 Z"/>
</g>
<g fill="#808D96" fill-opacity="1.00" stroke="None">
<path d="
M 363.00 355.00 
C 363.50 354.95 364.00 355.00 364.00 355.00
C 368.10 349.93 363.89 339.51 365.00 333.00 C 366.11 326.49 364.66 316.85 365.00 310.00 C 365.34 303.15 365.30 294.77 365.00 288.00 C 364.70 281.23 366.05 271.24 365.00 265.00 C 363.95 258.76 368.12 248.12 364.00 244.00
C 363.35 256.18 364.87 269.98 364.00 282.00 C 363.13 294.02 365.71 307.49 364.00 319.00 C 362.29 330.51 368.15 344.85 363.00 355.00 Z"/>
</g>
<g fill="#07161D" fill-opacity="1.00" stroke="None">
<path d="
M 334.00 377.00 
C 334.00 372.67 334.00 368.33 334.00 364.00
C 333.67 360.60 333.00 356.08 333.00 352.00
C 333.00 325.33 333.00 298.67 333.00 272.00
C 333.00 264.00 333.00 256.00 333.00 248.00
C 330.23 268.34 332.24 291.81 332.00 313.00 C 331.76 334.19 330.43 357.05 334.00 377.00 Z"/>
</g>
<g fill="#F9FCF8" fill-opacity="1.00" stroke="None">
<path d="
M 400.00 313.00 
C 411.25 311.98 422.65 312.96 434.00 313.00 C 445.35 313.04 457.66 311.98 469.00 313.00
C 474.64 305.36 466.85 289.01 470.00 280.00
C 446.67 280.00 423.33 280.00 400.00 280.00
C 400.00 291.00 400.00 302.00 400.00 313.00 Z"/>
</g>
<g fill="#70848E" fill-opacity="1.00" stroke="None">
<path d="
M 469.00 313.00 
C 468.76 313.32 469.00 314.00 469.00 314.00
C 469.50 314.00 470.92 314.19 471.00 314.00
C 472.65 310.28 470.74 299.83 471.00 296.00 C 471.26 292.17 472.68 281.88 470.00 280.00
C 466.85 289.01 474.64 305.36 469.00 313.00 Z"/>
</g>
<g fill="#3B5972" fill-opacity="1.00" stroke="None">
<path d="
M 600.00 314.00 
C 568.31 310.93 534.46 314.22 502.00 313.00
C 502.00 302.33 502.00 291.67 502.00 281.00
C 535.33 281.00 568.67 281.00 602.00 281.00
C 559.65 278.67 515.17 280.67 472.00 280.00
C 472.00 291.00 472.00 302.00 472.00 313.00
C 514.51 314.14 557.19 314.00 600.00 314.00 Z"/>
</g>
<g fill="#60829C" fill-opacity="1.00" stroke="None">
<path d="
M 600.00 314.00 
C 638.70 314.97 672.85 344.70 680.00 383.00 C 687.15 421.30 664.21 461.32 633.00 482.00
C 644.05 480.15 656.20 497.78 665.75 493.75 C 675.31 489.73 681.07 478.09 688.08 470.08 C 695.10 462.08 699.94 450.90 704.22 440.22 C 708.51 429.55 711.80 414.61 712.00 402.00 C 712.20 389.39 710.21 372.39 705.93 361.07 C 701.65 349.76 697.52 339.79 690.75 330.25 C 683.98 320.71 677.07 314.29 668.25 306.75 C 659.43 299.21 650.59 293.84 639.68 289.32 C 628.76 284.81 614.36 281.00 602.00 281.00
C 568.67 281.00 535.33 281.00 502.00 281.00
C 502.00 291.67 502.00 302.33 502.00 313.00
C 534.46 314.22 568.31 310.93 600.00 314.00 Z"/>
</g>
<g fill="#9AA3A6" fill-opacity="1.00" stroke="None">
<path d="
M 400.00 314.00 
C 422.58 316.04 446.32 314.00 469.00 314.00
C 469.00 314.00 468.76 313.32 469.00 313.00
C 457.66 311.98 445.35 313.04 434.00 313.00 C 422.65 312.96 411.25 311.98 400.00 313.00
C 400.00 313.00 399.75 313.74 400.00 314.00 Z"/>
</g>
<g fill="#010D15" fill-opacity="1.00" stroke="None">
<path d="
M 471.00 314.00 
C 470.92 314.19 469.50 314.00 469.00 314.00
C 446.32 314.00 422.58 316.04 400.00 314.00
C 404.45 318.60 417.64 313.19 424.00 315.00 C 430.36 316.81 442.72 313.30 449.00 315.00 C 455.28 316.70 468.65 312.71 471.00 314.00 Z"/>
</g>
<g fill="#08161E" fill-opacity="1.00" stroke="None">
<path d="
M 400.00 350.00 
C 432.72 347.04 467.12 350.00 500.00 350.00 C 532.88 350.00 567.28 347.04 600.00 350.00
C 600.95 349.78 602.74 350.39 603.00 349.00
C 594.44 349.01 585.52 348.99 577.00 349.00 C 568.48 349.01 560.49 348.97 552.00 349.00 C 543.51 349.03 534.46 348.94 526.00 349.00 C 517.54 349.06 509.38 348.86 501.00 349.00 C 492.62 349.14 483.22 348.71 475.00 349.00 C 466.78 349.29 457.84 348.33 450.00 349.00 C 442.16 349.67 431.08 347.58 424.00 349.00 C 416.92 350.42 404.59 345.26 400.00 350.00 Z"/>
</g>
<g fill="#96A4A6" fill-opacity="1.00" stroke="None">
<path d="
M 400.00 351.00 
C 433.02 353.98 466.83 349.88 500.00 351.00 C 533.17 352.12 566.79 351.00 600.00 351.00
C 600.00 351.00 599.92 350.01 600.00 350.00
C 567.28 347.04 532.88 350.00 500.00 350.00 C 467.12 350.00 432.72 347.04 400.00 350.00
C 400.00 350.00 400.00 350.50 400.00 351.00 Z"/>
</g>
<g fill="#F9FBF7" fill-opacity="1.00" stroke="None">
<path d="
M 400.00 397.00 
C 424.22 398.44 448.82 395.08 473.00 397.00
C 483.30 397.82 494.51 401.41 503.77 405.23 C 513.03 409.04 519.48 415.34 527.75 420.25 C 536.03 425.15 539.94 434.46 546.75 440.25 C 553.55 446.05 554.23 459.68 561.00 464.00
C 565.36 465.88 575.18 464.10 580.00 464.00
C 608.61 463.43 634.11 442.02 643.67 414.67 C 653.24 387.33 631.51 351.00 600.00 351.00
C 566.79 351.00 533.17 352.12 500.00 351.00 C 466.83 349.88 433.02 353.98 400.00 351.00
C 400.00 355.91 399.66 362.23 400.00 367.00 C 400.34 371.77 398.99 377.70 400.00 382.00 C 401.01 386.30 397.65 393.64 400.00 397.00 Z"/>
</g>
<g fill="#808B8C" fill-opacity="1.00" stroke="None">
<path d="
M 334.00 364.00 
C 334.00 359.92 333.33 355.40 333.00 352.00
C 333.00 356.08 333.67 360.60 334.00 364.00 Z"/>
</g>
<g fill="#5F819C" fill-opacity="1.00" stroke="None">
<path d="
M 334.00 377.00 
C 335.51 385.44 334.12 396.48 334.00 405.00 C 333.88 413.52 336.03 423.84 334.00 432.00
C 332.96 436.18 323.48 433.12 318.00 434.00 C 312.52 434.88 314.24 444.47 311.67 447.67 C 309.10 450.88 310.66 462.08 308.00 464.00
C 376.00 464.00 444.00 464.00 512.00 464.00
C 514.67 464.00 517.33 464.00 520.00 464.00
C 485.60 414.03 416.85 440.72 365.00 434.00
C 364.42 425.50 365.77 415.33 365.00 407.00 C 364.23 398.67 366.47 387.72 365.00 380.00 C 363.53 372.28 368.78 360.92 364.00 355.00
C 364.00 355.00 363.50 354.95 363.00 355.00
C 358.19 355.45 351.05 362.39 347.75 365.75 C 344.45 369.11 335.60 372.65 334.00 377.00 Z"/>
</g>
<g fill="#6B767A" fill-opacity="1.00" stroke="None">
<path d="
M 746.00 408.00 
C 746.57 402.09 746.58 394.98 746.00 389.00
C 746.00 395.33 746.00 401.67 746.00 408.00 Z"/>
</g>
<g fill="#000912" fill-opacity="1.00" stroke="None">
<path d="
M 473.00 397.00 
C 448.82 395.08 424.22 398.44 400.00 397.00
C 402.70 400.85 413.06 396.84 418.00 398.00 C 422.94 399.16 431.42 397.28 437.00 398.00 C 442.58 398.72 450.29 397.24 456.00 398.00 C 461.71 398.76 468.08 397.09 473.00 397.00 Z"/>
</g>
<g fill="#647078" fill-opacity="1.00" stroke="None">
<path d="
M 285.00 433.00 
C 284.75 432.73 285.00 432.00 285.00 432.00
C 283.03 432.00 278.74 432.84 277.00 432.00
C 279.13 433.51 282.16 433.00 285.00 433.00 Z"/>
</g>
<g fill="#8598A2" fill-opacity="1.00" stroke="None">
<path d="
M 285.00 433.00 
C 286.00 433.00 287.00 433.00 288.00 433.00
C 292.39 433.00 300.70 434.44 304.00 432.00
C 297.67 432.00 291.33 432.00 285.00 432.00
C 285.00 432.00 284.75 432.73 285.00 433.00 Z"/>
</g>
<g fill="#3D5B74" fill-opacity="1.00" stroke="None">
<path d="
M 288.00 433.00 
C 287.47 437.44 282.95 444.01 283.32 448.32 C 283.69 452.64 277.72 460.53 280.00 464.00
C 289.33 464.00 298.67 464.00 308.00 464.00
C 310.66 462.08 309.10 450.88 311.67 447.67 C 314.24 444.47 312.52 434.88 318.00 434.00 C 323.48 433.12 332.96 436.18 334.00 432.00
C 331.97 434.90 322.57 432.53 319.00 433.00 C 315.43 433.47 308.19 433.82 305.00 432.00
C 305.00 432.00 304.32 431.76 304.00 432.00
C 300.70 434.44 292.39 433.00 288.00 433.00 Z"/>
</g>
<g fill="#273F4F" fill-opacity="1.00" stroke="None">
<path d="
M 512.00 464.00 
C 444.00 464.00 376.00 464.00 308.00 464.00
C 298.67 464.00 289.33 464.00 280.00 464.00
C 282.78 468.22 295.61 463.69 301.00 465.00 C 306.39 466.31 315.68 464.41 322.00 465.00 C 328.32 465.59 336.21 464.75 343.00 465.00 C 349.79 465.25 358.04 464.88 365.00 465.00 C 371.96 465.12 379.00 464.94 386.00 465.00 C 393.00 465.06 399.97 464.96 407.00 465.00 C 414.03 465.04 420.92 464.95 428.00 465.00 C 435.09 465.05 442.93 464.92 450.00 465.00 C 457.07 465.08 464.01 464.83 471.00 465.00 C 477.99 465.17 485.11 464.62 492.00 465.00 C 498.89 465.38 505.87 464.59 512.00 464.00 Z"/>
</g>
<g fill="#7A898E" fill-opacity="1.00" stroke="None">
<path d="
M 580.00 464.00 
C 575.18 464.10 565.36 465.88 561.00 464.00
C 565.57 466.92 575.19 464.58 580.00 464.00 Z"/>
</g>
<g fill="#06161D" fill-opacity="1.00" stroke="None">
<path d="
M 309.00 500.00 
C 318.00 500.00 327.00 500.00 336.00 500.00
C 345.32 500.00 354.68 499.97 364.00 500.00 C 373.32 500.03 382.69 499.93 392.00 500.00 C 401.31 500.07 410.73 499.84 420.00 500.00 C 429.27 500.16 438.80 499.65 448.00 500.00 C 457.20 500.35 466.96 499.23 476.00 500.00 C 485.04 500.77 495.32 498.29 504.00 500.00 C 512.68 501.71 525.16 496.37 533.00 500.00
C 525.39 494.82 510.61 500.72 501.00 499.00 C 491.39 497.28 479.21 499.74 469.00 499.00 C 458.79 498.26 447.51 499.25 437.00 499.00 C 426.49 498.75 414.56 498.95 404.00 499.00 C 393.44 499.05 382.43 498.60 372.00 499.00 C 361.57 499.40 350.13 497.98 340.00 499.00 C 329.87 500.02 317.89 496.22 309.00 500.00 Z"/>
</g>
<g fill="#3E5B74" fill-opacity="1.00" stroke="None">
<path d="
M 307.00 533.00 
C 306.56 528.12 306.35 521.84 307.00 517.00 C 307.64 512.16 305.05 504.40 307.00 500.00
C 298.49 498.65 293.90 501.80 285.00 500.00 C 276.10 498.20 273.72 503.83 275.00 512.00 C 276.28 520.17 273.98 525.42 276.00 533.00
C 286.33 533.00 296.67 533.00 307.00 533.00 Z"/>
</g>
<g fill="#99A9B0" fill-opacity="1.00" stroke="None">
<path d="
M 307.00 533.00 
C 307.00 533.00 307.50 533.00 308.00 533.00
C 308.96 522.42 307.28 511.60 308.00 501.00
C 317.33 501.00 326.67 501.00 336.00 501.00
C 335.96 501.00 336.00 500.00 336.00 500.00
C 327.00 500.00 318.00 500.00 309.00 500.00
C 308.50 500.00 307.50 500.00 307.00 500.00
C 305.05 504.40 307.64 512.16 307.00 517.00 C 306.35 521.84 306.56 528.12 307.00 533.00 Z"/>
</g>
<g fill="#84918F" fill-opacity="1.00" stroke="None">
<path d="
M 336.00 501.00 
C 402.00 501.00 468.00 501.00 534.00 501.00
C 534.11 502.00 533.53 503.73 535.00 504.00
C 534.66 501.75 534.93 501.31 533.00 500.00
C 525.16 496.37 512.68 501.71 504.00 500.00 C 495.32 498.29 485.04 500.77 476.00 500.00 C 466.96 499.23 457.20 500.35 448.00 500.00 C 438.80 499.65 429.27 500.16 420.00 500.00 C 410.73 499.84 401.31 500.07 392.00 500.00 C 382.69 499.93 373.32 500.03 364.00 500.00 C 354.68 499.97 345.32 500.00 336.00 500.00
C 336.00 500.00 335.96 501.00 336.00 501.00 Z"/>
</g>
<g fill="#60819A" fill-opacity="1.00" stroke="None">
<path d="
M 596.00 534.00 
C 608.72 532.18 622.43 523.76 635.00 520.00
C 634.76 518.12 632.45 518.54 632.00 517.00
C 612.06 508.05 591.33 500.74 569.00 500.00
C 569.82 510.56 570.32 521.16 570.00 532.00
C 578.75 532.63 587.53 532.28 596.00 534.00 Z"/>
</g>
<g fill="#F9FBF8" fill-opacity="1.00" stroke="None">
<path d="
M 308.00 533.00 
C 314.96 532.99 322.05 533.01 329.00 533.00 C 335.95 532.99 343.10 533.00 350.00 533.00 C 356.90 533.00 363.11 533.01 370.00 533.00 C 376.89 532.99 384.09 533.01 391.00 533.00 C 397.91 532.99 405.13 533.03 412.00 533.00 C 418.87 532.97 425.16 533.06 432.00 533.00 C 438.84 532.94 446.18 533.13 453.00 533.00 C 459.82 532.87 467.32 533.28 474.00 533.00 C 480.68 532.72 487.61 533.65 494.00 533.00 C 500.39 532.35 509.13 534.37 515.00 533.00 C 520.87 531.63 530.45 536.19 535.00 533.00
C 535.00 526.00 535.00 519.00 535.00 512.00
C 535.00 509.43 535.38 506.54 535.00 504.00
C 533.53 503.73 534.11 502.00 534.00 501.00
C 468.00 501.00 402.00 501.00 336.00 501.00
C 326.67 501.00 317.33 501.00 308.00 501.00
C 307.28 511.60 308.96 522.42 308.00 533.00 Z"/>
</g>
<g fill="#959FA5" fill-opacity="1.00" stroke="None">
<path d="
M 535.00 533.00 
C 538.67 530.43 535.33 515.45 535.00 512.00
C 535.00 519.00 535.00 526.00 535.00 533.00 Z"/>
</g>
<g fill="#335069" fill-opacity="1.00" stroke="None">
<path d="
M 596.00 534.00 
C 612.03 537.26 625.19 546.63 639.00 555.00
C 636.86 550.91 651.90 550.15 656.23 545.23 C 660.55 540.31 667.99 538.87 674.00 544.00
C 662.42 532.42 646.87 523.05 632.00 517.00
C 632.45 518.54 634.76 518.12 635.00 520.00
C 622.43 523.76 608.72 532.18 596.00 534.00 Z"/>
</g>
<g fill="#60829C" fill-opacity="1.00" stroke="None">
<path d="
M 639.00 555.00 
C 667.55 572.31 686.45 610.23 681.33 643.33 C 676.21 676.43 659.07 706.32 625.22 719.22 C 591.38 732.13 539.04 727.00 501.00 727.00
C 501.79 731.34 499.94 738.99 501.00 743.00 C 502.06 747.01 498.52 755.54 502.00 758.00
C 529.80 760.61 567.34 757.14 594.00 757.00 C 620.66 756.86 642.60 746.92 662.77 732.77 C 682.94 718.62 693.81 702.47 704.02 681.02 C 714.23 659.58 715.93 623.70 708.93 601.07 C 701.92 578.45 692.28 559.62 674.00 544.00
C 667.99 538.87 660.55 540.31 656.23 545.23 C 651.90 550.15 636.86 550.91 639.00 555.00 Z"/>
</g>
<g fill="#5F819C" fill-opacity="1.00" stroke="None">
<path d="
M 308.00 570.00 
C 308.21 574.91 309.80 582.94 311.99 587.01 C 314.19 591.07 315.65 599.45 320.00 601.00
C 324.67 601.00 329.33 601.00 334.00 601.00
C 332.94 625.54 335.86 650.89 333.00 675.00
C 332.94 675.49 333.00 676.50 333.00 677.00
C 333.34 677.23 334.00 677.00 334.00 677.00
C 333.98 675.67 334.01 674.33 334.00 673.00
C 343.79 682.40 353.92 691.66 364.00 700.00
C 364.24 700.25 365.00 700.00 365.00 700.00
C 364.92 668.34 365.06 634.51 365.00 602.00
C 394.56 603.15 432.26 600.47 461.00 602.00 C 489.74 603.53 510.00 592.90 523.00 569.00
C 451.84 570.83 379.58 570.00 308.00 570.00 Z"/>
</g>
<g fill="#F9FBF7" fill-opacity="1.00" stroke="None">
<path d="
M 550.00 591.00 
C 537.28 611.98 518.72 626.92 496.00 635.00
C 466.57 644.75 431.82 637.98 400.00 640.00
C 400.46 645.01 399.39 651.09 400.00 656.00 C 400.61 660.91 398.83 667.48 400.00 672.00 C 401.17 676.52 397.49 684.42 400.00 688.00
C 423.10 687.44 446.98 688.75 470.00 688.00 C 493.02 687.25 517.26 689.44 540.00 688.00 C 562.74 686.56 586.52 691.99 608.00 686.00
C 639.99 676.81 654.97 638.68 640.92 609.08 C 626.88 579.48 593.56 564.56 561.00 569.00
C 559.60 577.37 554.19 584.08 550.00 591.00 Z"/>
</g>
<g fill="#415E77" fill-opacity="1.00" stroke="None">
<path d="
M 280.00 603.00 
C 288.17 602.01 296.88 604.32 305.00 603.00
C 309.69 602.24 314.40 601.00 320.00 601.00
C 315.65 599.45 314.19 591.07 311.99 587.01 C 309.80 582.94 308.21 574.91 308.00 570.00
C 298.33 570.00 288.67 570.00 279.00 570.00
C 280.47 581.03 283.64 591.50 287.00 602.00
C 284.52 601.28 281.82 602.56 280.00 603.00 Z"/>
</g>
<g fill="#1B2A31" fill-opacity="1.00" stroke="None">
<path d="
M 496.00 635.00 
C 518.72 626.92 537.28 611.98 550.00 591.00
C 542.96 591.72 545.68 599.36 541.00 603.00
C 537.75 602.77 540.92 598.34 536.00 600.00
C 540.77 604.36 531.21 606.55 532.00 612.00
C 522.62 612.53 520.98 621.03 512.00 621.00
C 513.59 623.27 511.00 625.53 511.00 628.00
C 506.96 626.81 501.35 633.32 496.00 631.00
C 495.84 632.72 497.39 633.55 496.00 635.00 Z"/>
</g>
<g fill="#F6F9F7" fill-opacity="1.00" stroke="None">
<path d="
M 305.00 603.00 
C 296.88 604.32 288.17 602.01 280.00 603.00
C 278.33 603.00 276.67 603.00 275.00 603.00
C 275.00 666.00 275.00 729.00 275.00 792.00
C 285.00 792.00 295.00 792.00 305.00 792.00
C 305.01 784.04 304.99 775.94 305.00 768.00 C 305.01 760.06 304.97 751.89 305.00 744.00 C 305.03 736.11 304.94 728.86 305.00 721.00 C 305.06 713.14 304.87 704.84 305.00 697.00 C 305.13 689.16 304.71 680.71 305.00 673.00 C 305.29 665.29 304.32 657.46 305.00 650.00 C 305.68 642.54 303.56 633.01 305.00 626.00 C 306.44 618.99 301.67 608.91 305.00 603.00 Z"/>
</g>
<g fill="#F7FAF7" fill-opacity="1.00" stroke="None">
<path d="
M 334.00 677.00 
C 334.80 685.85 333.78 695.94 333.00 704.00
C 333.00 730.67 333.00 757.34 333.00 784.00
C 333.19 785.96 333.77 789.44 334.00 792.00
C 334.26 792.25 335.00 792.00 335.00 792.00
C 339.80 788.45 357.66 790.43 364.00 791.00
C 363.99 761.09 361.31 729.77 364.00 700.00
C 353.92 691.66 343.79 682.40 334.00 673.00
C 334.01 674.33 333.98 675.67 334.00 677.00 Z"/>
</g>
<g fill="#041119" fill-opacity="1.00" stroke="None">
<path d="
M 364.00 792.00 
C 354.51 792.87 344.53 792.00 335.00 792.00
C 335.00 792.00 334.26 792.25 334.00 792.00
C 332.27 790.33 333.00 786.45 333.00 784.00
C 333.00 757.34 333.00 730.67 333.00 704.00
C 333.00 695.00 333.00 686.00 333.00 677.00
C 333.00 676.50 332.94 675.49 333.00 675.00
C 330.67 713.35 332.67 753.83 332.00 793.00
C 336.94 792.35 344.30 793.86 349.00 793.00 C 353.70 792.14 360.79 795.21 364.00 792.00 Z"/>
</g>
<g fill="#7B868A" fill-opacity="1.00" stroke="None">
<path d="
M 333.00 704.00 
C 333.78 695.94 334.80 685.85 334.00 677.00
C 334.00 677.00 333.34 677.23 333.00 677.00
C 333.00 686.00 333.00 695.00 333.00 704.00 Z"/>
</g>
<g fill="#06141C" fill-opacity="1.00" stroke="None">
<path d="
M 400.00 688.00 
C 402.96 692.23 415.54 687.69 421.00 689.00 C 426.46 690.31 435.69 688.40 442.00 689.00 C 448.31 689.60 456.29 688.73 463.00 689.00 C 469.71 689.27 477.10 688.87 484.00 689.00 C 490.90 689.13 497.96 688.92 505.00 689.00 C 512.04 689.08 519.93 688.91 527.00 689.00 C 534.07 689.09 540.97 688.83 548.00 689.00 C 555.03 689.17 561.99 688.63 569.00 689.00 C 576.01 689.37 583.01 688.19 590.00 689.00 C 596.99 689.81 603.28 688.13 608.00 686.00
C 586.52 691.99 562.74 686.56 540.00 688.00 C 517.26 689.44 493.02 687.25 470.00 688.00 C 446.98 688.75 423.10 687.44 400.00 688.00 Z"/>
</g>
<g fill="#7C8992" fill-opacity="1.00" stroke="None">
<path d="
M 364.00 791.00 
C 364.00 791.50 364.00 792.00 364.00 792.00
C 368.41 787.76 363.64 775.41 365.00 769.00 C 366.36 762.59 364.45 753.08 365.00 746.00 C 365.55 738.92 364.91 730.35 365.00 723.00 C 365.09 715.65 365.30 707.42 365.00 700.00
C 365.00 700.00 364.24 700.25 364.00 700.00
C 361.31 729.77 363.99 761.09 364.00 791.00 Z"/>
</g>
<g fill="#F8FBF7" fill-opacity="1.00" stroke="None">
<path d="
M 400.00 757.00 
C 423.15 754.91 446.81 758.56 470.00 757.00
C 470.00 755.33 470.00 753.67 470.00 752.00
C 469.26 743.73 470.56 735.28 470.00 727.00
C 459.17 726.33 447.01 728.33 437.00 726.00
C 424.02 726.53 412.20 722.36 400.00 720.00
C 400.00 732.33 400.00 744.67 400.00 757.00 Z"/>
</g>
<g fill="#748489" fill-opacity="1.00" stroke="None">
<path d="
M 470.00 752.00 
C 470.02 752.09 471.00 752.00 471.00 752.00
C 471.00 743.33 471.00 734.67 471.00 726.00
C 459.67 726.00 448.33 726.00 437.00 726.00
C 447.01 728.33 459.17 726.33 470.00 727.00
C 470.56 735.28 469.26 743.73 470.00 752.00 Z"/>
</g>
<g fill="#395771" fill-opacity="1.00" stroke="None">
<path d="
M 502.00 758.00 
C 498.52 755.54 502.06 747.01 501.00 743.00 C 499.94 738.99 501.79 731.34 501.00 727.00
C 491.33 727.00 481.67 727.00 472.00 727.00
C 472.00 737.00 472.00 747.00 472.00 757.00
C 482.02 756.60 492.37 757.10 502.00 758.00 Z"/>
</g>
<g fill="#1B2A2F" fill-opacity="1.00" stroke="None">
<path d="
M 669.00 769.00 
C 685.30 759.32 699.71 747.41 712.00 732.00
C 710.47 732.25 709.82 734.55 708.00 734.00
C 710.13 730.65 707.44 731.74 705.00 732.00
C 703.24 738.23 693.56 747.37 687.92 752.92 C 682.28 758.47 676.30 762.51 669.00 769.00 Z"/>
</g>
<g fill="#9AA6AB" fill-opacity="1.00" stroke="None">
<path d="
M 400.00 757.00 
C 400.00 757.00 399.75 757.74 400.00 758.00
C 405.54 758.50 411.44 758.01 417.00 758.00 C 422.56 757.99 429.61 758.44 435.00 758.00 C 440.39 757.56 447.13 759.28 452.00 758.00 C 456.87 756.72 466.17 760.78 470.00 758.00
C 471.17 756.12 470.93 754.49 471.00 752.00
C 471.00 752.00 470.02 752.09 470.00 752.00
C 470.00 753.67 470.00 755.33 470.00 757.00
C 446.81 758.56 423.15 754.91 400.00 757.00 Z"/>
</g>
<g fill="#08151D" fill-opacity="1.00" stroke="None">
<path d="
M 470.00 758.00 
C 466.17 760.78 456.87 756.72 452.00 758.00 C 447.13 759.28 440.39 757.56 435.00 758.00 C 429.61 758.44 422.56 757.99 417.00 758.00 C 411.44 758.01 405.54 758.50 400.00 758.00
C 404.07 762.20 418.93 758.05 425.00 759.00 C 431.07 759.95 444.15 759.37 450.00 759.00 C 455.85 758.63 467.67 761.75 470.00 758.00 Z"/>
</g>
<g fill="#7E878E" fill-opacity="1.00" stroke="None">
<path d="
M 334.00 792.00 
C 333.77 789.44 333.19 785.96 333.00 784.00
C 333.00 786.45 332.27 790.33 334.00 792.00 Z"/>
</g>
<g fill="#BFC8CB" fill-opacity="1.00" stroke="None">
<path d="
M 335.00 792.00 
C 344.53 792.00 354.51 792.87 364.00 792.00
C 364.00 792.00 364.00 791.50 364.00 791.00
C 357.66 790.43 339.80 788.45 335.00 792.00 Z"/>
</g>
<g fill="#28373C" fill-opacity="1.00" stroke="None">
<path d="
M 508.00 800.00 
C 508.00 797.67 508.00 795.33 508.00 793.00
C 536.20 791.32 564.85 795.23 593.00 793.00
C 579.31 791.53 562.41 791.51 548.00 792.00 C 533.59 792.49 516.91 789.34 505.00 795.00
C 506.42 796.22 507.63 798.29 508.00 800.00 Z"/>
</g>
</svg>